<?xml version="1.0" encoding="UTF-8"?>
<svg width="124px" height="58px" viewBox="0 0 124 58" version="1.1" xmlns="http://www.w3.org/2000/svg" xmlns:xlink="http://www.w3.org/1999/xlink">
    <!-- Generator: Sketch 50.2 (55047) - http://www.bohemiancoding.com/sketch -->
    <title>logo</title>
    <desc>Created with Sketch.</desc>
    <defs></defs>
    <g id="Page-1" stroke="none" stroke-width="1" fill="none" fill-rule="evenodd" opacity="0.366517857">
        <g id="logo" fill="#FFFFFF">
            <path d="M16.0812579,45.8536377 C15.4022411,46.5365906 14.6998735,47.7318114 14.6998735,49.5365906 C14.6998735,51.024536 15.1681186,52.2195434 16.1281643,53.1950075 C17.1349117,54.1950075 18.2588228,54.5368039 19.4767516,54.5368039 C21.0689078,54.5368039 22.1928188,53.9268189 22.9420929,53.1463623 C23.5508525,52.5368039 24.3003313,51.3902283 24.3003313,49.5118413 C24.3003313,47.8293151 23.6444605,46.5852358 22.9420929,45.8536377 C22.169468,45.0731811 20.9283933,44.4634094 19.4998976,44.4634094 C18.141864,44.4634094 16.9243448,44.9756774 16.0812579,45.8536377 M25.5647569,43.3659057 C27.0399542,44.8536377 28,47 28,49.5118413 C28,51.6829528 27.2505211,53.9024963 25.5647569,55.6097717 C24.1129104,57.0731811 22.1459124,58 19.5234532,58 C16.5964094,58 14.6060606,56.7804566 13.4352431,55.6097717 C11.936695,54.1463623 11,51.9513548 11,49.5611265 C11,47.2195434 12.0069522,44.8536377 13.4118923,43.3902283 C14.4657509,42.2927246 16.4089885,41 19.5234532,41 C21.9586963,41 23.9957467,41.7806699 25.5647569,43.3659057" id="Fill-2"></path>
            <path d="M32.5663904,49.3644066 L33.84,49.3644066 C34.3263904,49.3644066 35.1832965,49.3402754 35.7620626,48.7646951 C36.0863904,48.4287475 36.3410313,47.8770885 36.3410313,47.181482 C36.3410313,46.5097967 36.1094843,45.9581377 35.7620626,45.6221902 C35.2294843,45.0944525 34.4653591,45.0224787 33.7705157,45.0224787 L32.5663904,45.0224787 L32.5663904,49.3644066 Z M34.4420626,42 C35.7853591,42 37.2674217,42.192 38.4948435,43.3194492 C39.8148435,44.5186623 40,46.1020852 40,47.2056131 C40,49.220459 39.2591713,50.3479082 38.6802026,50.971541 C37.4527808,52.266859 35.831547,52.3868852 34.7432965,52.3868852 L32.5663904,52.3868852 L32.5663904,58 L29,58 L29,42 L34.4420626,42 Z" id="Fill-4"></path>
            <polygon id="Fill-6" points="41 58 43.5347011 42 46.5671826 42 50.4998964 51.5710426 54.4326102 42 57.4648844 42 60 58 56.3516137 58 55.095972 48.4528787 51.1396333 58 49.8603667 58 45.904028 48.4528787 44.6483863 58"></polygon>
            <path d="M66.0812579,45.8536377 C65.4022411,46.5365906 64.6998735,47.7318114 64.6998735,49.5365906 C64.6998735,51.024536 65.1681186,52.2195434 66.1281643,53.1950075 C67.1349117,54.1950075 68.2590277,54.5368039 69.4767516,54.5368039 C71.0689078,54.5368039 72.1928188,53.9268189 72.9420929,53.1463623 C73.5508525,52.5368039 74.3003313,51.3902283 74.3003313,49.5118413 C74.3003313,47.8293151 73.6444605,46.5852358 72.9420929,45.8536377 C72.169468,45.0731811 70.9283933,44.4634094 69.4996928,44.4634094 C68.141864,44.4634094 66.9243448,44.9756774 66.0812579,45.8536377 M75.5647569,43.3659057 C77.0399542,44.8536377 78,47 78,49.5118413 C78,51.6829528 77.2507259,53.9024963 75.5647569,55.6097717 C74.1129104,57.0731811 72.1459124,58 69.5234532,58 C66.5964094,58 64.6060606,56.7804566 63.4352431,55.6097717 C61.936695,54.1463623 61,51.9513548 61,49.5611265 C61,47.2195434 62.0069522,44.8536377 63.4118923,43.3902283 C64.4657509,42.2927246 66.4089885,41 69.5234532,41 C71.9586963,41 73.9957467,41.7806699 75.5647569,43.3659057" id="Fill-8"></path>
            <polygon id="Fill-10" points="80 58 80 42 83.2981455 42 92.209189 52.3147016 92.209189 42 96 42 96 58 92.7014238 58 83.7905956 47.6370361 83.7905956 58"></polygon>
            <polygon id="Fill-12" points="101.648057 48.6685902 107.048755 42 111.502472 42 105.106302 49.580118 112 58 107.309434 58 101.648057 50.8995672 101.648057 58 98 58 98 42 101.648057 42"></polygon>
            <path d="M121.81377,45.3415286 C120.663281,44.2440387 119.673639,44.1708584 119.236393,44.1708584 C118.753047,44.1708584 118.154551,44.2440387 117.740657,44.7317646 C117.510358,44.9756275 117.34931,45.3415286 117.34931,45.7560743 C117.34931,46.1462977 117.46446,46.4390186 117.694557,46.6585592 C118.062754,47.0244603 118.591798,47.1708208 119.627741,47.5853665 L120.778229,48.0487701 C121.445573,48.3169553 122.274166,48.6828564 122.872662,49.2926205 C123.770305,50.1951054 124,51.3657756 124,52.3171185 C124,54.0000502 123.447604,55.4634413 122.642363,56.3413906 C121.284525,57.8536396 119.305241,58 118.293053,58 C117.188262,58 116.221771,57.8293173 115.255079,57.3168424 C114.472585,56.9022967 113.574942,56.1461722 113,55.5366215 L114.840782,52.8537023 C115.232129,53.268248 115.853574,53.8291541 116.26767,54.0975527 C116.866165,54.4877761 117.487409,54.6827811 118.200853,54.6827811 C118.661048,54.6827811 119.305241,54.5852786 119.811738,54.121875 C120.110885,53.8536898 120.363933,53.4146084 120.363933,52.8048444 C120.363933,52.2682605 120.156985,51.9266817 119.834688,51.6339608 C119.420391,51.2682731 118.477051,50.902372 118.039603,50.7316893 L116.773764,50.2682856 C116.060521,49.999887 115.232129,49.6585216 114.633633,48.9755773 C113.828191,48.0730924 113.713444,46.9269578 113.713444,46.1462977 C113.713444,44.7074423 114.127338,43.4879142 115.048131,42.4879267 C116.129772,41.3172565 117.41836,41 118.845247,41 C119.903938,41 121.607024,41.1952184 123.401907,42.6099649 L121.81377,45.3415286 Z" id="Fill-14"></path>
            <polygon id="Fill-1" points="0 42 0 45.1185427 3.59211537 45.1185427 3.59211537 58 7.40745119 58 7.40745119 45.1185427 11 45.1185427 11 42"></polygon>
            <path d="M65.9862754,27.5446786 C63.1561248,27.5446786 62.4841822,26.4751558 60.5294579,26.4751558 L60.4793144,26.4751558 C58.4996638,26.4751558 57.8479921,27.5446786 55.0179385,27.5446786 C50.0413156,27.5185163 48.0026954,22.5145132 50.4553633,20.3829295 C51.7083693,19.4308608 53.2870657,20.0062475 54.2393076,21.4106294 C55.1917435,22.8149192 56.6201063,25.1099253 59.6775031,24.9750604 C58.8796683,24.6587175 58.2610699,24.3504812 57.7682668,24.0421528 C60.638668,23.0562758 62.669335,21.8466372 64.0972129,20.6881258 C64.2890579,21.1607056 64.5826448,21.6185461 64.8679876,21.9899772 C64.3051581,22.7634237 63.6535834,23.1126537 61.9161153,23.8900613 C64.3219373,23.6997397 65.1906713,22.9380847 66.6108871,21.4146827 C67.7769906,20.1643268 69.2936138,19.4308608 70.5466198,20.3829295 C72.9992876,22.5145132 70.9629953,27.5185163 65.9862754,27.5446786 Z M53.4458374,14.6232593 C54.5164063,13.679113 55.7491415,13.3995263 55.9487457,13.3593616 C56.8449278,14.5914776 58.2739695,15.8136446 60.4793144,15.8169609 C62.7348028,15.8136446 64.1341658,14.5914776 65.0304448,13.3593616 C65.1370362,13.3808258 65.5433248,13.47092 66.0616361,13.6941287 C64.160256,18.9081673 58.6482516,20.5913068 56.7311592,21.0445412 C57.0368698,20.3936155 57.2201797,19.69101 57.0209635,19.1773443 C56.8225232,18.6654289 56.3360244,18.2348562 55.7978302,17.9531507 C55.790362,17.6670234 55.7941446,16.8102077 56.0688186,16.2100405 C55.4975511,16.8067992 55.2199674,17.356392 55.1093995,17.6820391 C54.839769,17.6100006 54.5817772,17.5818117 54.3646179,17.6065 C53.7401032,17.6777094 52.873018,18.316291 52.4749735,18.6341999 C52.3754624,18.6067479 52.2742055,18.5835335 52.1712997,18.5649251 C52.3309443,16.9917778 52.7456709,15.5261355 53.4458374,14.6232593 Z M54.921434,10.1320929 C54.0080849,9.8158421 53.5323519,8.49980403 54.7099972,7.57960914 C55.0846672,7.81313542 55.4055081,8.2391021 55.4055081,8.2391021 C54.7290071,4.84721343 56.7201024,1.33400163 60.4998762,1.33105376 C64.279456,1.33400163 66.2707452,4.84721343 65.5940502,8.2391021 C65.5940502,8.2391021 65.9149881,7.81313542 66.2894642,7.57960914 C67.4672064,8.49980403 66.9914735,9.8158421 66.0782213,10.1320929 C65.8334201,9.93384887 65.7004476,9.8136312 65.5054989,9.56803709 C65.2343166,11.6088818 63.7432986,14.6486847 60.4998762,14.6515404 C57.2561628,14.6486847 55.7652418,11.6088818 55.4940594,9.56803709 C55.2992077,9.8136312 55.1662353,9.93384887 54.921434,10.1320929 Z M55.4839725,21.4051943 C55.2654554,21.0119305 55.0254067,20.5976631 54.6905023,20.1533644 C54.4070993,19.7776036 53.9350519,19.3305412 53.3453563,18.9985378 C53.6073247,18.7396783 54.0613321,18.3699053 54.5484128,18.3522181 C55.1253058,18.3313067 56.0307018,18.8879007 56.2190552,19.542327 C56.4122581,20.2131508 55.7944356,21.042791 55.4839725,21.4051943 Z M67.654202,18.9985378 C67.0646035,19.3305412 66.5924591,19.7776036 66.3091531,20.1533644 C65.9741517,20.5976631 65.7100495,20.8508112 65.4152988,21.262407 C65.1049327,20.8999116 64.5873973,20.2131508 64.7804062,19.542327 C64.9689536,18.8879007 65.8744466,18.3313067 66.4511455,18.3522181 C66.9381293,18.3699053 67.3921367,18.7396783 67.654202,18.9985378 Z M67.5476107,14.6232593 C68.2475831,15.5261355 68.6656074,16.9917778 68.825252,18.5649251 C68.7222492,18.5835335 68.6225441,18.6067479 68.522936,18.6341999 C68.1618445,18.3457696 67.4147352,17.7929526 66.812722,17.640032 C67.2076628,16.9687476 67.3291905,16.5433336 67.3291905,16.5433336 C67.1201784,16.9159624 66.8896346,17.2703512 66.6420207,17.6075134 C66.639305,17.607237 66.6366862,17.6067764 66.6341645,17.6065 C65.7987948,17.5112471 64.3592782,18.19506 63.9781099,19.1773443 C63.8479501,19.5129405 63.8595889,19.8879643 63.9564813,20.2665809 C61.0627056,22.4268142 57.747996,23.3295061 57.0294016,23.5073914 C56.5731635,23.119747 56.266774,22.7272202 56.0075213,22.3177431 C64.2675263,20.3362242 66.2386418,15.2751063 66.6160275,13.9673591 C66.9219321,14.1386117 67.2419001,14.3538059 67.5476107,14.6232593 Z M60.5294579,27.949089 C62.0832281,27.949089 61.8614133,28.3008984 64.5344411,28.840358 C71.9522871,30.1732541 74.614743,22.8046938 72.0479186,19.8926625 C71.4881928,19.2575815 70.9152765,18.878228 70.3562296,18.6829318 C70.3100626,18.3364654 69.8909715,15.4038912 68.7233161,13.9882705 C67.2075658,12.5457505 65.8744466,12.1721085 65.7875441,12.1489862 C66.0214825,11.7039505 66.2372839,11.3244127 66.3535742,11.0908864 C67.3459697,11.1107845 69.2219386,8.66147607 66.8654842,6.85931643 C66.8654842,1.32036775 62.0832281,0.00442179947 60.4793144,0 C58.9255443,0.00442179947 54.1136094,1.32036775 54.1136094,6.85931643 C51.757155,8.66147607 53.6498061,11.1108766 54.6421046,11.0908864 C54.7583949,11.3245969 54.9760391,11.7040426 55.2100745,12.1490783 C55.123366,12.1722006 53.7910226,12.5460269 52.2752723,13.988639 C51.107617,15.4040754 50.6889138,18.336926 50.6429408,18.6833925 C50.0838939,18.8787807 49.5111715,19.2583185 48.9513487,19.8933995 C46.3845244,22.805615 49.0517328,30.1732541 56.4695788,28.840358 C59.1426066,28.3008984 58.9088621,27.949089 60.4793144,27.949089 L60.5294579,27.949089 Z M61.1304507,5.26987383 C61.5122919,5.30344794 61.850512,5.03687186 61.8858838,4.67443754 C61.9212557,4.31200322 61.6402806,3.99097301 61.2584394,3.9573989 C60.8767231,3.92382479 60.5385031,4.19040087 60.5030062,4.55283519 C60.4676343,4.91526951 60.7484845,5.23629972 61.1304507,5.26987383 M61.1304598,3.95169201 C61.5123066,3.98526612 61.8505315,3.71869004 61.8859039,3.35625572 C61.9211513,2.9938214 61.6401721,2.67279119 61.2584503,2.63921708 C60.8767286,2.60564297 60.5385036,2.87221905 60.5030063,3.23465337 C60.4676339,3.59708769 60.7484881,3.9181179 61.1304598,3.95169201 M63.2777778,9.22727273 C62.3355545,9.6959596 61.4058581,9.6959596 60.5,9.22727273 C60.5,10.9848485 63.2777778,10.9848485 63.2777778,9.22727273 M59.1111111,9.22727273 C58.20544,9.6959596 57.2755566,9.6959596 56.3333333,9.22727273 C56.3333333,10.9848485 59.1111111,10.9848485 59.1111111,9.22727273 M59.8696181,3.95169201 C60.2514933,3.9181179 60.5323685,3.59708769 60.4969935,3.23465337 C60.4616185,2.87221905 60.1233683,2.60564297 59.741493,2.63921708 C59.3596178,2.67279119 59.0787426,2.9938214 59.1141176,3.35625572 C59.1494926,3.71869004 59.4877429,3.98526612 59.8696181,3.95169201 M59.741493,5.27558072 C59.3596178,5.30915483 59.0787426,5.63018503 59.1141176,5.99261936 C59.1494926,6.35505368 59.4877429,6.62162976 59.8696181,6.58805565 C60.2514933,6.55448153 60.5323685,6.23345133 60.4969935,5.87101701 C60.4616185,5.50858268 60.1233683,5.2420066 59.741493,5.27558072 M61.1303819,6.58805565 C61.5123821,6.62162976 61.8506324,6.35505368 61.8858824,5.99261936 C61.9212574,5.63018503 61.6403822,5.30915483 61.258507,5.27558072 C60.8767567,5.2420066 60.5385065,5.50858268 60.5030065,5.87101701 C60.4676315,6.23345133 60.7485067,6.55448153 61.1303819,6.58805565 M59.7414935,3.9573989 C59.359618,3.99097301 59.0787426,4.31200322 59.1141176,4.67443754 C59.1494927,5.03687186 59.4877432,5.30344794 59.8696187,5.26987383 C60.2513693,5.23629972 60.5323697,4.91526951 60.4969946,4.55283519 C60.4616196,4.19040087 60.1233691,3.92382479 59.7414935,3.9573989" id="Fill-9"></path>
        </g>
    </g>
</svg>