<?xml version="1.0" encoding="UTF-8"?>
<svg width="237px" height="234px" viewBox="0 0 237 234" version="1.1" xmlns="http://www.w3.org/2000/svg" xmlns:xlink="http://www.w3.org/1999/xlink">
    <!-- Generator: Sketch 50.2 (55047) - http://www.bohemiancoding.com/sketch -->
    <title>ikona1</title>
    <desc>Created with Sketch.</desc>
    <defs>
        <polygon id="path-1" points="0 234 236.821301 234 236.821301 0.297159292 0 0.297159292"></polygon>
        <polygon id="path-3" points="0 234 236.821301 234 236.821301 0.297159292 0 0.297159292"></polygon>
        <polygon id="path-5" points="0 234 236.821301 234 236.821301 0.297159292 0 0.297159292"></polygon>
        <polygon id="path-7" points="0 234 236.821301 234 236.821301 0.297159292 0 0.297159292"></polygon>
        <polygon id="path-9" points="0 234 236.821301 234 236.821301 0.297159292 0 0.297159292"></polygon>
        <polygon id="path-11" points="0 234 236.821301 234 236.821301 0.297159292 0 0.297159292"></polygon>
        <polygon id="path-13" points="0 234 236.821301 234 236.821301 0.297159292 0 0.297159292"></polygon>
        <polygon id="path-15" points="0 234 236.821301 234 236.821301 0.297159292 0 0.297159292"></polygon>
        <polygon id="path-17" points="0 234 236.821301 234 236.821301 0.297159292 0 0.297159292"></polygon>
        <polygon id="path-19" points="0 234 236.821301 234 236.821301 0.297159292 0 0.297159292"></polygon>
        <polygon id="path-21" points="0 234 236.821301 234 236.821301 0.297159292 0 0.297159292"></polygon>
        <polygon id="path-23" points="0 234 236.821301 234 236.821301 0.297159292 0 0.297159292"></polygon>
        <polygon id="path-25" points="0 234 236.821301 234 236.821301 0.297159292 0 0.297159292"></polygon>
        <polygon id="path-27" points="0 234 236.821301 234 236.821301 0.297159292 0 0.297159292"></polygon>
        <polygon id="path-29" points="0 234 236.821301 234 236.821301 0.297159292 0 0.297159292"></polygon>
        <polygon id="path-31" points="0 234 236.821301 234 236.821301 0.297159292 0 0.297159292"></polygon>
        <polygon id="path-33" points="0 234 236.821301 234 236.821301 0.297159292 0 0.297159292"></polygon>
        <polygon id="path-35" points="0 234 236.821301 234 236.821301 0.297159292 0 0.297159292"></polygon>
        <polygon id="path-37" points="0 234 236.821301 234 236.821301 0.297159292 0 0.297159292"></polygon>
        <polygon id="path-39" points="0 234 236.821301 234 236.821301 0.297159292 0 0.297159292"></polygon>
        <polygon id="path-41" points="0 234 236.821301 234 236.821301 0.297159292 0 0.297159292"></polygon>
        <polygon id="path-43" points="0 234 236.821301 234 236.821301 0.297159292 0 0.297159292"></polygon>
        <polygon id="path-45" points="0 234 236.821301 234 236.821301 0.297159292 0 0.297159292"></polygon>
        <polygon id="path-47" points="0 234 236.821301 234 236.821301 0.297159292 0 0.297159292"></polygon>
        <polygon id="path-49" points="0 234 236.821301 234 236.821301 0.297159292 0 0.297159292"></polygon>
        <polygon id="path-51" points="0 234 236.821301 234 236.821301 0.297159292 0 0.297159292"></polygon>
        <polygon id="path-53" points="0 234 236.821301 234 236.821301 0.297159292 0 0.297159292"></polygon>
        <polygon id="path-55" points="0 234 236.821301 234 236.821301 0.297159292 0 0.297159292"></polygon>
        <polygon id="path-57" points="0 234 236.821301 234 236.821301 0.297159292 0 0.297159292"></polygon>
        <path d="M3.286,0.464 L0.105,5.80904348 C-0.037,6.048 0.0356666667,6.36104348 0.266666667,6.5053913 L2.088,7.64208696 C2.31133333,7.78191304 2.607,7.70713043 2.74466667,7.47652174 L5.92566667,2.13147826 C6.06766667,1.89252174 5.995,1.57878261 5.764,1.43478261 L3.94233333,0.298086957 C3.866,0.250086957 3.78133333,0.227478261 3.69733333,0.227478261 C3.53533333,0.227478261 3.37633333,0.311652174 3.286,0.464" id="path-59"></path>
        <path d="M8.12970213,0.522212766 L7.86280851,1.78008511 C7.17242553,1.78246809 6.49906383,1.89821277 5.86451064,2.11234043 L5.13259574,0.986553191 C5.05429787,0.866042553 4.89089362,0.831319149 4.77004255,0.909957447 L2.75268085,2.22195745 C2.63182979,2.30059574 2.59744681,2.46365957 2.67608511,2.58451064 L3.3773617,3.66331915 C2.90451064,4.13957447 2.50314894,4.69242553 2.19676596,5.30995745 L0.885106383,5.03182979 C0.744510638,5.00187234 0.604595745,5.09310638 0.574638298,5.23404255 L0.0759148936,7.58842553 C0.0459574468,7.7293617 0.136851064,7.86893617 0.277787234,7.89889362 L1.53531915,8.16544681 C1.53804255,8.85582979 1.65378723,9.52919149 1.86791489,10.1637447 L0.74212766,10.8956596 C0.621617021,10.9746383 0.586893617,11.1370213 0.665531915,11.2582128 L1.97719149,13.2755745 C2.05582979,13.3964255 2.21889362,13.4311489 2.34008511,13.3525106 L3.41889362,12.651234 C3.89480851,13.1240851 4.448,13.5254468 5.06553191,13.8314894 L4.78740426,15.1431489 C4.75778723,15.2840851 4.84834043,15.4236596 4.9892766,15.4539574 L7.34365957,15.9526809 C7.48459574,15.9826383 7.62451064,15.8917447 7.65446809,15.7511489 L7.92068085,14.4929362 C8.61140426,14.4905532 9.28442553,14.3751489 9.91931915,14.1606809 L10.651234,15.2861277 C10.7295319,15.4073191 10.8929362,15.4417021 11.0137872,15.3630638 L13.0311489,14.0510638 C13.152,13.972766 13.1867234,13.8093617 13.1080851,13.6888511 L12.4064681,12.6100426 C12.8793191,12.1334468 13.2810213,11.5809362 13.5870638,10.9630638 L14.8987234,11.2411915 C15.0396596,11.2708085 15.179234,11.1799149 15.2091915,11.0389787 L15.7082553,8.68493617 C15.7382128,8.544 15.6469787,8.40408511 15.5060426,8.37412766 L14.2481702,8.10757447 C14.2457872,7.41719149 14.130383,6.74382979 13.9159149,6.1092766 L15.0417021,5.37702128 C15.1625532,5.2987234 15.1969362,5.13531915 15.1186383,5.01514894 L13.8066383,2.99710638 C13.728,2.87659574 13.5649362,2.84221277 13.4440851,2.92051064 L12.365617,3.62178723 C11.8890213,3.1492766 11.3358298,2.74723404 10.7186383,2.44153191 L10.9964255,1.12987234 C11.026383,0.98893617 10.9354894,0.849021277 10.7945532,0.819404255 L8.44051064,0.320340426 C8.42212766,0.316595745 8.40408511,0.314553191 8.38638298,0.314553191 C8.26519149,0.314553191 8.15557447,0.399319149 8.12970213,0.522212766 Z M7.38961702,10.5079149 C6.07965957,10.2301277 5.24323404,8.94331915 5.52068085,7.63404255 C5.79812766,6.32442553 7.08493617,5.48731915 8.39455319,5.76544681 C9.70417021,6.04289362 10.5409362,7.3293617 10.2634894,8.63931915 C10.0217872,9.77940426 9.01514894,10.5610213 7.89446809,10.5610213 C7.728,10.5610213 7.55880851,10.5436596 7.38961702,10.5079149 Z" id="path-61"></path>
        <path d="M5.14793103,0.262857143 L4.98931034,1.04071429 C4.5762069,1.0425 4.17413793,1.11392857 3.79517241,1.24642857 L3.35793103,0.550357143 C3.31103448,0.475 3.2137931,0.453928571 3.14137931,0.5025 L1.9362069,1.31392857 C1.86413793,1.36285714 1.84344828,1.46392857 1.89034483,1.53857143 L2.30931034,2.20607143 C2.02689655,2.50035714 1.78689655,2.84285714 1.60413793,3.22464286 L0.821034483,3.05285714 C0.736551724,3.03428571 0.653103448,3.09035714 0.635172414,3.17785714 L0.336896552,4.63428571 C0.318965517,4.72142857 0.373793103,4.80785714 0.457931034,4.82678571 L1.20931034,4.99142857 C1.21068966,5.41857143 1.27965517,5.83535714 1.40793103,6.22821429 L0.735172414,6.68071429 C0.663103448,6.72928571 0.642413793,6.83 0.689310345,6.905 L1.47275862,8.15321429 C1.52,8.22785714 1.61758621,8.24964286 1.68965517,8.20071429 L2.33413793,7.76678571 C2.61827586,8.05928571 2.94896552,8.30785714 3.31758621,8.49714286 L3.15172414,9.30857143 C3.1337931,9.39571429 3.18827586,9.48214286 3.27241379,9.50071429 L4.67862069,9.80928571 C4.76275862,9.82821429 4.84655172,9.77178571 4.86448276,9.68464286 L5.02344828,8.90607143 C5.43586207,8.90464286 5.83827586,8.83321429 6.21724138,8.70071429 L6.65448276,9.39714286 C6.70137931,9.47178571 6.79862069,9.49321429 6.87068966,9.44464286 L8.0762069,8.63285714 C8.14862069,8.58428571 8.16896552,8.48357143 8.12206897,8.40892857 L7.70310345,7.74142857 C7.98551724,7.44642857 8.22551724,7.10428571 8.40827586,6.7225 L9.19172414,6.89428571 C9.27586207,6.91321429 9.35931034,6.85642857 9.37758621,6.76928571 L9.67551724,5.3125 C9.69310345,5.22571429 9.63862069,5.13892857 9.55448276,5.12035714 L8.80310345,4.95571429 C8.80172414,4.52821429 8.73275862,4.11178571 8.60482759,3.71928571 L9.27724138,3.26642857 C9.34931034,3.21785714 9.37,3.11714286 9.32310345,3.0425 L8.53931034,1.79392857 C8.49275862,1.71892857 8.39482759,1.69785714 8.32275862,1.74678571 L7.67827586,2.18035714 C7.39413793,1.88785714 7.06344828,1.63928571 6.69482759,1.45 L6.86068966,0.638571429 C6.87862069,0.551428571 6.82413793,0.465 6.74,0.446071429 L5.33344828,0.1375 C5.32275862,0.135357143 5.31206897,0.134285714 5.30137931,0.134285714 C5.22931034,0.134285714 5.1637931,0.186428571 5.14793103,0.262857143 Z M4.7062069,6.44071429 C3.9237931,6.26928571 3.4237931,5.47285714 3.58965517,4.66285714 C3.75551724,3.8525 4.52413793,3.335 5.3062069,3.50642857 C6.08862069,3.67821429 6.58862069,4.47428571 6.42275862,5.28428571 C6.27827586,5.99 5.67724138,6.47321429 5.00758621,6.47357143 C4.90827586,6.47357143 4.80724138,6.46285714 4.7062069,6.44071429 Z" id="path-63"></path>
        <path d="M6.25764706,0.202588235 L6.05964706,1.13717647 C5.54682353,1.13929412 5.046,1.22505882 4.57447059,1.38423529 L4.03058824,0.548117647 C3.97235294,0.458117647 3.85129412,0.432352941 3.76129412,0.490941176 L2.262,1.46611765 C2.172,1.524 2.14623529,1.64541176 2.20482353,1.73505882 L2.72611765,2.53658824 C2.37458824,2.89058824 2.076,3.30176471 1.84870588,3.76058824 L0.874235294,3.55411765 C0.769411765,3.53152941 0.665294118,3.59929412 0.643058824,3.70411765 L0.272470588,5.454 C0.250235294,5.55882353 0.317647059,5.66223529 0.422470588,5.68447059 L1.35741176,5.88282353 C1.35917647,6.396 1.44494118,6.89647059 1.60411765,7.368 L0.767647059,7.91152941 C0.678,7.97047059 0.652235294,8.09152941 0.710470588,8.18117647 L1.68529412,9.68047059 C1.74388235,9.77047059 1.86529412,9.79623529 1.95529412,9.73764706 L2.75682353,9.21635294 C3.11082353,9.56788235 3.52164706,9.86647059 3.98047059,10.0937647 L3.774,11.0685882 C3.75176471,11.1734118 3.81952941,11.2771765 3.924,11.2997647 L5.67388235,11.67 C5.77870588,11.6925882 5.88247059,11.6248235 5.90470588,11.52 L6.10305882,10.5854118 C6.61588235,10.5832941 7.11635294,10.4975294 7.58788235,10.338 L8.13176471,11.1748235 C8.19035294,11.2648235 8.31141176,11.2902353 8.40105882,11.232 L9.90070588,10.2568235 C9.99035294,10.1985882 10.0161176,10.0775294 9.95788235,9.98788235 L9.43623529,9.18564706 C9.78776471,8.832 10.0863529,8.42082353 10.3136471,7.962 L11.2881176,8.16847059 C11.3929412,8.19070588 11.4970588,8.12329412 11.5192941,8.01882353 L11.8902353,6.26894118 C11.9121176,6.16411765 11.8447059,6.06 11.7398824,6.03776471 L10.8049412,5.83976471 C10.8031765,5.32658824 10.7174118,4.82647059 10.5582353,4.35494118 L11.3950588,3.81070588 C11.4847059,3.75247059 11.5101176,3.63105882 11.4518824,3.54141176 L10.4770588,2.04211765 C10.4184706,1.95211765 10.2970588,1.92635294 10.2077647,1.98494118 L9.40552941,2.50623529 C9.05152941,2.15505882 8.64105882,1.85647059 8.18188235,1.62882353 L8.38835294,0.654 C8.41058824,0.549176471 8.34317647,0.445764706 8.23835294,0.423176471 L6.48847059,0.0525882353 C6.47505882,0.0497647059 6.46129412,0.0483529412 6.44788235,0.0483529412 C6.35823529,0.0483529412 6.27741176,0.111529412 6.25764706,0.202588235 Z M5.70776471,7.62352941 C4.73470588,7.41705882 4.11247059,6.46094118 4.31894118,5.48752941 C4.52505882,4.51447059 5.48117647,3.89258824 6.45458824,4.09905882 C7.42835294,4.30517647 8.04988235,5.26164706 7.84376471,6.23505882 C7.66376471,7.08211765 6.91588235,7.66305882 6.08329412,7.66305882 C5.95941176,7.66305882 5.83376471,7.65035294 5.70776471,7.62352941 Z" id="path-65"></path>
        <polygon id="path-67" points="0.0997367517 0.297159292 59.4026535 0.297159292 59.4026535 46.8468 0.0997367517 46.8468"></polygon>
        <polygon id="path-69" points="0 234 236.821301 234 236.821301 0.297159292 0 0.297159292"></polygon>
        <polygon id="path-71" points="0 234 236.821301 234 236.821301 0.297159292 0 0.297159292"></polygon>
        <polygon id="path-73" points="0 234 236.821301 234 236.821301 0.297159292 0 0.297159292"></polygon>
        <polygon id="path-75" points="0 234 236.821301 234 236.821301 0.297159292 0 0.297159292"></polygon>
        <polygon id="path-77" points="0 234 236.821301 234 236.821301 0.297159292 0 0.297159292"></polygon>
        <polygon id="path-79" points="0 234 236.821301 234 236.821301 0.297159292 0 0.297159292"></polygon>
        <polygon id="path-81" points="0 234 236.821301 234 236.821301 0.297159292 0 0.297159292"></polygon>
        <polygon id="path-83" points="0 234 236.821301 234 236.821301 0.297159292 0 0.297159292"></polygon>
        <polygon id="path-85" points="0 234 236.821301 234 236.821301 0.297159292 0 0.297159292"></polygon>
        <polygon id="path-87" points="0 234 236.821301 234 236.821301 0.297159292 0 0.297159292"></polygon>
        <polygon id="path-89" points="0 234 236.821301 234 236.821301 0.297159292 0 0.297159292"></polygon>
        <polygon id="path-91" points="0 234 236.821301 234 236.821301 0.297159292 0 0.297159292"></polygon>
        <polygon id="path-93" points="0 234 236.821301 234 236.821301 0.297159292 0 0.297159292"></polygon>
        <polygon id="path-95" points="0 234 236.821301 234 236.821301 0.297159292 0 0.297159292"></polygon>
        <polygon id="path-97" points="0 234 236.821301 234 236.821301 0.297159292 0 0.297159292"></polygon>
        <polygon id="path-99" points="0 234 236.821301 234 236.821301 0.297159292 0 0.297159292"></polygon>
        <polygon id="path-101" points="0 234 236.821301 234 236.821301 0.297159292 0 0.297159292"></polygon>
        <polyline id="path-103" points="0.110880597 7.1699375 6.26870149 21.896875 22.6711343 15.0201562 16.5136567 0.29321875"></polyline>
        <polyline id="path-105" points="0.110880597 7.1699375 6.26870149 21.896875 22.6711343 15.0201562 16.5136567 0.29321875"></polyline>
    </defs>
    <g id="Page-1" stroke="none" stroke-width="1" fill="none" fill-rule="evenodd">
        <g id="ikona1">
            <polygon id="Fill-1" fill="#FDD8A5" fill-rule="nonzero" points="109 120 109 128.149309 118.284083 134 128 128.149309 128 120"></polygon>
            <polygon id="Fill-2" fill="#F7BF84" fill-rule="nonzero" points="109 120 109 128.594801 114.123248 132 128 123.195457 128 120"></polygon>
            <g id="Group-83">
                <path d="M135.12022,101.571565 C135.12022,101.571565 133.834831,100.071273 133.192137,101.785893 C133.192137,101.785893 137.262534,82.4971142 118.410513,82.4971142 C99.5588358,82.4971142 103.629233,101.785893 103.629233,101.785893 C102.986539,100.071273 101.70115,101.571565 101.70115,101.571565 C100.629993,111.215955 104.914622,112.073265 104.914622,112.073265 C104.914622,112.073265 104.914622,117.43145 109.8416,122.360636 C114.768923,127.290167 118.410513,127.290167 118.410513,127.290167 C118.410513,127.290167 122.266679,126.647185 127.193657,121.717999 C132.121325,116.788468 131.907093,112.073265 131.907093,112.073265 C131.907093,112.073265 136.191032,111.215955 135.12022,101.571565" id="Fill-3" fill="#FDD8A5" fill-rule="nonzero"></path>
                <path d="M103.926639,104.969121 L105.212028,99.1822805 C105.212028,99.1822805 106.497416,94.4674221 107.14011,93.395785 C107.782805,92.3241478 108.984709,91.0381832 108.984709,91.0381832 C108.984709,91.0381832 112.486582,92.5384752 119.560359,94.0387673 C126.634482,95.5390593 128.348333,95.3247319 128.348333,95.3247319 L126.42025,92.9671301 L130.276416,92.9671301 C130.276416,92.9671301 130.490648,96.396369 131.56146,97.4680062 C132.632962,98.5396434 133.06108,104.969121 133.06108,104.969121 L134.774931,103.254502 L135.846089,99.6112805 L135.846089,87.8236168 C135.846089,87.8236168 131.347228,77.1072451 118.494032,77.1072451 C105.64049,77.1072451 101.355862,88.8949088 101.355862,88.8949088 C101.355862,88.8949088 100.498936,98.9682982 101.355862,100.03959 C102.212787,101.111227 103.926639,104.969121 103.926639,104.969121" id="Fill-5" fill="#494746" fill-rule="nonzero"></path>
                <path d="M39.4184127,159.878947 C39.4184127,159.878947 45.5410852,161.869673 47.0717533,162.073646 C48.6024214,162.277965 51.9694083,162.737336 53.806417,164.778796 C55.6430808,166.820602 55.0307445,166.718442 55.6941376,167.229239 C56.3575306,167.739345 58.5512467,169.526097 58.5512467,169.526097 L52.0204651,175.702593 C52.0204651,175.702593 49.7246354,174.273053 48.9846572,174.068735 C48.245024,173.864761 37.2757533,171.670062 36.4081332,171.108531 C35.5408581,170.547 27.4286965,161.154903 27.326583,160.84877 C27.2244694,160.542637 27.2755262,159.981106 27.6325786,159.878947 C27.989976,159.776788 29.4185306,159.725708 30.9491987,161.512115 C32.4795218,163.298867 36.0510808,166.616628 36.0510808,166.616628 L31.1530808,160.84877 C31.1530808,160.84877 30.9491987,159.847885 31.1530808,159.837876 C31.3573079,159.827867 32.8369192,159.725708 34.5714694,161.410301 C36.3063646,163.094549 39.77581,167.484292 43.4491376,167.12708 C47.12281,166.769867 45.1836878,164.728062 45.1836878,164.728062 C45.1836878,164.728062 42.1226965,163.758239 41.35719,163.758239 C40.5920284,163.758239 38.449024,161.920752 39.4184127,159.878947" id="Fill-7" fill="#FDD8A5" fill-rule="nonzero"></path>
                <path d="M47.2926083,117.55097 C47.2926083,117.55097 42.0692939,116.69366 41.65739,115.523315 C41.5983987,115.355581 41.5890843,115.148156 41.6149576,114.917607 C41.6149576,114.917262 43.8072939,110.709058 44.0781017,110.272465 C44.4993201,109.670554 44.8156651,108.967864 44.3085472,108.644474 C44.3085472,108.644474 43.3743463,107.522793 42.1369096,109.369598 C42.1365646,109.370288 42.1362197,109.370979 42.1358747,109.371669 C42.0820581,109.433448 42.0327262,109.499713 41.989259,109.572191 C41.9540712,109.630864 41.9188834,109.688501 41.8840406,109.745448 C41.4545428,110.380492 41.0836913,110.913722 40.7921847,111.326156 C40.8860188,110.927527 41.4845559,108.288642 41.0191803,107.806492 C41.0191803,107.806492 39.9642371,106.373846 39.4640188,107.41028 C38.9634555,108.446368 37.8843638,113.615421 37.8843638,113.615421 C37.8843638,113.615421 40.3499227,122.054607 43.6344598,121.234572 C46.918652,120.414536 47.2926083,117.55097 47.2926083,117.55097" id="Fill-9" fill="#F7BF84" fill-rule="nonzero"></path>
                <path d="M34.3923223,111.068963 L33.0776105,106.47352 C33.0776105,106.47352 34.4454489,105.283503 35.4106978,107.067839 C36.3759467,108.85252 39.9544052,117.101538 41.0086585,117.606812 C42.0629118,118.112087 45.7593528,118.462396 46.8808769,116.380901 C48.0020559,114.29975 49.1773965,109.681184 52.0155319,110.614423 C52.0155319,110.614423 52.8258856,111.149724 52.0400253,112.842945 C51.2538201,114.536512 48.7285799,122.295441 49.3988725,123.531361 C50.0691651,124.767281 50.9843921,125.355733 50.9843921,125.355733 L48.7492786,134.13591 C48.7492786,134.13591 42.1646803,133.049777 40.5387983,129.67714 C38.9132611,126.304503 34.3923223,111.068963 34.3923223,111.068963" id="Fill-11" fill="#FDD8A5" fill-rule="nonzero"></path>
                <path d="M189.528728,117.55097 C189.528728,117.55097 194.752042,116.69366 195.163946,115.523315 C195.223282,115.355581 195.231907,115.148156 195.206378,114.917607 C195.206378,114.917262 193.014042,110.709058 192.743234,110.272465 C192.322016,109.670554 192.006016,108.967864 192.512789,108.644474 C192.512789,108.644474 193.44699,107.522793 194.684081,109.369598 C194.684771,109.370288 194.685116,109.370979 194.685461,109.371669 C194.739278,109.433448 194.78861,109.499713 194.832077,109.572191 C194.86761,109.630864 194.902452,109.688501 194.937295,109.745448 C195.366793,110.380492 195.737645,110.913722 196.029151,111.326156 C195.935317,110.927527 195.337125,108.288642 195.802155,107.806492 C195.802155,107.806492 196.857099,106.373846 197.357317,107.41028 C197.85788,108.446368 198.936627,113.615421 198.936627,113.615421 C198.936627,113.615421 196.471413,122.054607 193.186876,121.234572 C189.902684,120.414536 189.528728,117.55097 189.528728,117.55097" id="Fill-13" fill="#F7BF84" fill-rule="nonzero"></path>
                <path d="M202.429014,111.068963 L203.743725,106.47352 C203.743725,106.47352 202.376232,105.283503 201.410638,107.067839 C200.445389,108.85252 196.866931,117.101538 195.812332,117.606812 C194.758424,118.112087 191.061983,118.462396 189.940804,116.380901 C188.81928,114.29975 187.643939,109.681184 184.805804,110.614423 C184.805804,110.614423 183.99545,111.149724 184.781655,112.842945 C185.567516,114.536512 188.092756,122.295441 187.422463,123.531361 C186.752171,124.767281 185.836944,125.355733 185.836944,125.355733 L188.072057,134.13591 C188.072057,134.13591 194.657,133.049777 196.282538,129.67714 C197.90842,126.304503 202.429014,111.068963 202.429014,111.068963" id="Fill-15" fill="#FDD8A5" fill-rule="nonzero"></path>
                <polygon id="Fill-17" fill="#FDF6FA" fill-rule="nonzero" points="183.906998 126.995596 185.862334 125.205048 195.095675 131.143402 192.64564 133.216614"></polygon>
                <polygon id="Fill-19" fill="#FDF6FA" fill-rule="nonzero" points="52.9141655 126.995596 50.9591742 125.205048 41.7258336 131.143402 44.1755236 133.216614"></polygon>
                <path d="M109.498002,151.960773 L95.4936131,134.719322 L70.2898533,139.625384 L52.7356393,125.945358 L42.0320017,132.785198 C42.0320017,132.785198 66.3884952,155.900119 70.7793773,155.766552 C70.8535476,155.764481 70.9249581,155.756888 70.9939537,155.745844 L109.498002,151.960773 Z" id="Fill-21" fill="#496E99" fill-rule="nonzero"></path>
                <path d="M127.323507,151.960773 L141.327895,134.719322 L166.53131,139.625384 L184.085524,125.945358 L194.789507,132.785198 C194.789507,132.785198 170.433013,155.900119 166.041786,155.766552 C165.967961,155.764481 165.89655,155.756888 165.82721,155.745844 L127.323507,151.960773 Z" id="Fill-23" fill="#395273" fill-rule="nonzero"></path>
                <path d="M39.0478371,159.878947 C39.0478371,159.878947 45.1705096,161.869673 46.7008328,162.073646 C48.2315009,162.277965 51.5988328,162.737336 53.4358415,164.778796 C55.2725052,166.820602 54.660169,166.718442 55.323562,167.229239 C55.98661,167.739345 58.1803262,169.526097 58.1803262,169.526097 L51.6498895,175.702593 C51.6498895,175.702593 49.3540598,174.273053 48.6140817,174.068735 C47.8744485,173.864761 36.9051777,171.670062 36.0375576,171.108531 C35.1702825,170.547 27.058121,161.154903 26.9560074,160.84877 C26.8538939,160.542637 26.9049507,159.981106 27.2620031,159.878947 C27.6194004,159.776788 29.047955,159.725708 30.5782782,161.512115 C32.1089463,163.298867 35.6805052,166.616628 35.6805052,166.616628 L30.7825052,160.84877 C30.7825052,160.84877 30.5782782,159.847885 30.7825052,159.837876 C30.9863873,159.827867 32.4659987,159.725708 34.2008939,161.410301 C35.9354441,163.094549 39.4048895,167.484292 43.078562,167.12708 C46.7518895,166.769867 44.8131122,164.728062 44.8131122,164.728062 C44.8131122,164.728062 41.751776,163.758239 40.9866144,163.758239 C40.2211079,163.758239 38.0784485,161.920752 39.0478371,159.878947" id="Fill-25" fill="#FDD8A5" fill-rule="nonzero"></path>
                <path d="M197.773499,159.878947 C197.773499,159.878947 191.651171,161.869673 190.120158,162.073646 C188.589835,162.277965 185.222503,162.737336 183.385839,164.778796 C181.549176,166.820602 182.161167,166.718442 181.497774,167.229239 C180.834381,167.739345 178.640665,169.526097 178.640665,169.526097 L185.171446,175.702593 C185.171446,175.702593 187.467276,174.273053 188.207254,174.068735 C188.946887,173.864761 199.916503,171.670062 200.783778,171.108531 C201.651053,170.547 209.76356,161.154903 209.865673,160.84877 C209.967442,160.542637 209.916385,159.981106 209.559333,159.878947 C209.20228,159.776788 207.773381,159.725708 206.243058,161.512115 C204.71239,163.298867 201.140831,166.616628 201.140831,166.616628 L206.038831,160.84877 C206.038831,160.84877 206.243058,159.847885 206.038831,159.837876 C205.834603,159.827867 204.354992,159.725708 202.620442,161.410301 C200.885547,163.094549 197.416446,167.484292 193.742774,167.12708 C190.069446,166.769867 192.008224,164.728062 192.008224,164.728062 C192.008224,164.728062 195.06956,163.758239 195.834721,163.758239 C196.600228,163.758239 198.743232,161.920752 197.773499,159.878947" id="Fill-27" fill="#FDD8A5" fill-rule="nonzero"></path>
                <polygon id="Fill-29" fill="#FDF6FA" fill-rule="nonzero" points="174.196069 169.140584 179.435598 166.134133 186.83262 176.926434 181.901502 179.855575"></polygon>
                <path d="M127.836593,128.46883 L150.772466,138.383113 L165.103894,172.147104 L175.582951,166.134202 L184.212924,179.70137 C184.212924,179.70137 164.641623,190.6476 163.717082,190.6476 C162.79254,190.6476 162.79254,191.110078 160.018571,188.48914 C157.244946,185.868547 144.916462,170.142573 144.916462,170.142573 L144.916462,210.073396 L118.410754,210.073396 L118.410754,166.134202 L127.836593,128.46883 Z" id="Fill-31" fill="#496E99" fill-rule="nonzero"></path>
                <polygon id="Fill-33" fill="#FDF6FA" fill-rule="nonzero" points="62.8446035 169.140584 57.6050751 166.134133 50.2080533 176.926434 55.1395162 179.855575"></polygon>
                <path d="M108.984743,128.46883 L85.3026821,138.786228 L71.9365031,172.147104 L61.4574463,166.134202 L52.8278175,179.70137 C52.8278175,179.70137 72.3991188,190.6476 73.3236603,190.6476 C74.2482017,190.6476 74.2482017,191.110078 77.0221712,188.48914 C79.7961406,185.868547 92.1242803,170.142573 92.1242803,170.142573 L92.1242803,210.073396 L118.410582,210.073396 L118.410582,166.134202 L108.984743,128.46883 Z" id="Fill-35" fill="#395273" fill-rule="nonzero"></path>
                <polygon id="Fill-37" fill="#E7E7E8" fill-rule="nonzero" points="108.984743 127.891147 118.143569 133.923722 118.410582 166.134271 108.984743 128.468899"></polygon>
                <polygon id="Fill-39" fill="#F3F3F3" fill-rule="nonzero" points="127.836593 128.126735 117.914331 133.772761 118.410754 166.134133 127.836593 128.468761"></polygon>
                <polygon id="Fill-41" fill="#C9C9C9" fill-rule="nonzero" points="117.914434 133.772899 111.191845 137.288766 118.410513 166.134271 125.769932 136.72689"></polygon>
                <polygon id="Fill-43" fill="#E74134" fill-rule="nonzero" points="118.410685 166.134133 117.914607 140.191885 117.914607 133.772761 114.543825 135.535699 116.641982 138.434124 115.034384 153.435319"></polygon>
                <polygon id="Fill-45" fill="#EC685F" fill-rule="nonzero" points="118.410685 166.134133 117.914607 140.191885 117.914607 133.772761 121.285043 135.535699 119.186541 138.434124 121.629676 153.906425"></polygon>
                <polygon id="Fill-47" fill="#E74134" fill-rule="nonzero" points="118.410685 165.756972 118.410685 166.134202 115.034384 153.435388 117.914607 133.77283"></polygon>
                <polygon id="Fill-49" fill="#496E99" fill-rule="nonzero" points="108.984743 127.891147 99.6927563 132.193227 105.330045 138.118465 102.691997 143.208483 118.410582 166.134271"></polygon>
                <polygon id="Fill-51" fill="#395273" fill-rule="nonzero" points="127.836593 128.126735 137.105121 132.081611 131.361924 138.118327 133.999972 143.208345 118.281387 166.134133"></polygon>
                <g id="Fill-53-Clipped">
                    <mask id="mask-2" fill="white">
                        <use xlink:href="#path-1"></use>
                    </mask>
                    <g id="path-1"></g>
                    <polygon id="Fill-53" fill="#496E99" fill-rule="nonzero" mask="url(#mask-2)" points="96.8650393 192.411504 108.54807 192.411504 108.54807 189.583832 96.8650393 189.583832"></polygon>
                </g>
                <g id="Fill-55-Clipped">
                    <mask id="mask-4" fill="white">
                        <use xlink:href="#path-3"></use>
                    </mask>
                    <g id="path-1"></g>
                    <polygon id="Fill-55" fill="#395273" fill-rule="nonzero" mask="url(#mask-4)" points="128.273231 192.411504 139.955917 192.411504 139.955917 189.583832 128.273231 189.583832"></polygon>
                </g>
                <g id="Fill-56-Clipped">
                    <mask id="mask-6" fill="white">
                        <use xlink:href="#path-5"></use>
                    </mask>
                    <g id="path-1"></g>
                    <path d="M88.1021109,194.53445 C93.7873511,194.53445 98.9051022,196.962114 102.478731,200.836919 C103.959032,199.309362 106.030281,198.358866 108.325076,198.358866 C112.822901,198.358866 116.469321,202.006919 116.469321,206.50676 C116.469321,206.771822 116.455521,207.033433 116.431028,207.291592 C117.005762,207.215318 117.59119,207.172176 118.186967,207.172176 C125.500159,207.172176 131.428609,213.103627 131.428609,220.419751 C131.428609,227.73622 125.500159,233.667327 118.186967,233.667327 L88.1021109,233.667327 C77.3004996,233.667327 68.5442638,224.907167 68.5442638,214.100716 C68.5442638,203.29461 77.3004996,194.53445 88.1021109,194.53445" id="Fill-56" fill="#D2D2D2" fill-rule="nonzero" mask="url(#mask-6)"></path>
                </g>
                <g id="Fill-57-Clipped">
                    <mask id="mask-8" fill="white">
                        <use xlink:href="#path-7"></use>
                    </mask>
                    <g id="path-1"></g>
                    <path d="M88.1021109,193.869138 C93.7873511,193.869138 98.9051022,196.296802 102.478731,200.171607 C103.959032,198.644395 106.030281,197.693554 108.325076,197.693554 C112.822901,197.693554 116.469321,201.341607 116.469321,205.841793 C116.469321,206.10651 116.455521,206.36812 116.431028,206.626625 C117.005762,206.55035 117.59119,206.506864 118.186967,206.506864 C125.500159,206.506864 131.428609,212.438315 131.428609,219.754784 C131.428609,227.070908 125.500159,233.002359 118.186967,233.002359 L88.1021109,233.002359 C77.3004996,233.002359 68.5442638,224.2422 68.5442638,213.435749 C68.5442638,202.629297 77.3004996,193.869138 88.1021109,193.869138" id="Fill-57" fill="#FFFFFF" fill-rule="nonzero" mask="url(#mask-8)"></path>
                </g>
                <g id="Fill-58-Clipped">
                    <mask id="mask-10" fill="white">
                        <use xlink:href="#path-9"></use>
                    </mask>
                    <g id="path-1"></g>
                    <path d="M148.719225,194.866779 C143.033985,194.866779 137.916234,197.294442 134.34226,201.169593 C132.862303,199.642035 130.79071,198.69154 128.496605,198.69154 C123.998434,198.69154 120.352015,202.339248 120.352015,206.839434 C120.352015,207.104496 120.365814,207.366106 120.390308,207.624265 C119.815574,207.547991 119.230491,207.50485 118.634369,207.50485 C111.321177,207.50485 105.392727,213.435956 105.392727,220.752425 C105.392727,228.068894 111.321177,234 118.634369,234 L148.719225,234 C159.520836,234 168.276727,225.239841 168.276727,214.433389 C168.276727,203.627283 159.520836,194.866779 148.719225,194.866779" id="Fill-58" fill="#D2D2D2" fill-rule="nonzero" mask="url(#mask-10)"></path>
                </g>
                <g id="Fill-59-Clipped">
                    <mask id="mask-12" fill="white">
                        <use xlink:href="#path-11"></use>
                    </mask>
                    <g id="path-1"></g>
                    <path d="M148.719225,194.201777 C143.033985,194.201777 137.916234,196.629441 134.34226,200.504246 C132.862303,198.977034 130.79071,198.026193 128.496605,198.026193 C123.998434,198.026193 120.352015,201.674246 120.352015,206.174432 C120.352015,206.439149 120.365814,206.700759 120.390308,206.959264 C119.815574,206.882644 119.230491,206.839503 118.634369,206.839503 C111.321177,206.839503 105.392727,212.770954 105.392727,220.087423 C105.392727,227.403547 111.321177,233.334998 118.634369,233.334998 L148.719225,233.334998 C159.520836,233.334998 168.276727,224.574494 168.276727,213.768042 C168.276727,202.961936 159.520836,194.201777 148.719225,194.201777" id="Fill-59" fill="#FFFFFF" fill-rule="nonzero" mask="url(#mask-12)"></path>
                </g>
                <g id="Fill-60-Clipped">
                    <mask id="mask-14" fill="white">
                        <use xlink:href="#path-13"></use>
                    </mask>
                    <g id="path-1"></g>
                    <path d="M131.915028,107.228498 C130.674486,110.845489 129.363224,110.668091 127.130181,110.952135 C124.897137,111.235489 123.089452,110.384737 123.089452,110.384737 C120.076757,108.327746 120.324452,104.143702 120.785342,103.292604 C121.246233,102.441507 122.132482,101.306711 126.74001,101.306711 C131.347884,101.306711 131.986093,102.725206 131.986093,102.725206 C132.83681,104.391852 131.915028,107.228498 131.915028,107.228498 Z M113.731919,110.384737 C113.731919,110.384737 111.924233,111.235489 109.69119,110.952135 C107.458146,110.668091 106.146884,110.845489 104.905997,107.228498 C104.905997,107.228498 103.984906,104.391852 104.835277,102.725206 C104.835277,102.725206 105.473486,101.306711 110.081015,101.306711 C114.688888,101.306711 115.575137,102.441507 116.036028,103.292604 C116.496574,104.143702 116.744613,108.327746 113.731919,110.384737 Z M131.702521,100.703764 C131.702521,100.703764 127.732513,100.101162 125.00339,100.526711 C122.274268,100.951914 120.004312,101.519312 119.278478,101.483764 C118.552644,101.44856 118.410513,101.485489 118.410513,101.485489 C118.410513,101.485489 118.268727,101.44856 117.542893,101.483764 C116.817059,101.519312 114.547102,100.951914 111.81798,100.526711 C109.088858,100.101162 105.118849,100.703764 105.118849,100.703764 L102.673299,100.987463 L102.673299,103.363357 C102.673299,103.363357 103.311163,103.859658 103.452949,104.143702 C103.594735,104.427056 104.480984,107.724799 105.012596,109.036994 C105.544207,110.349188 107.493679,112.299534 112.101552,111.483985 C116.709425,110.668091 117.241037,104.923702 117.542893,104.604454 C117.845093,104.285206 118.410513,104.178905 118.410513,104.178905 C118.410513,104.178905 118.976277,104.285206 119.278478,104.604454 C119.580334,104.923702 120.111945,110.668091 124.720163,111.483985 C129.327692,112.299534 131.277163,110.349188 131.808775,109.036994 C132.340386,107.724799 133.226635,104.427056 133.368421,104.143702 C133.510207,103.859658 134.148417,103.363357 134.148417,103.363357 L134.148417,100.987463 L131.702521,100.703764 Z" id="Fill-60" fill="#303031" fill-rule="nonzero" mask="url(#mask-14)"></path>
                </g>
                <g id="Fill-61-Clipped">
                    <mask id="mask-16" fill="white">
                        <use xlink:href="#path-15"></use>
                    </mask>
                    <g id="path-1"></g>
                    <polygon id="Fill-61" fill="#496E99" fill-rule="nonzero" mask="url(#mask-16)" points="118.281318 166.134133 118.186794 206.507071 119.290724 206.507071"></polygon>
                </g>
                <g id="Fill-62-Clipped">
                    <mask id="mask-18" fill="white">
                        <use xlink:href="#path-17"></use>
                    </mask>
                    <g id="path-1"></g>
                    <path d="M62.1871441,78.0498027 C62.4952096,79.5811566 61.5044323,81.0721301 59.9737642,81.3806788 C58.4430961,81.6888823 56.9527904,80.6973159 56.6447249,79.1663071 C56.3363144,77.6349531 57.3274367,76.1436345 58.8581048,75.835431 C60.3884279,75.5272274 61.8790786,76.5184487 62.1871441,78.0498027" id="Fill-62" fill="#375471" fill-rule="nonzero" mask="url(#mask-18)"></path>
                </g>
                <g id="Fill-63-Clipped">
                    <mask id="mask-20" fill="white">
                        <use xlink:href="#path-19"></use>
                    </mask>
                    <g id="path-1"></g>
                    <path d="M41.2970948,91.3173611 L41.1094266,91.3549805 C40.7951515,91.4181398 40.4863961,91.213131 40.42361,90.8990602 C40.360479,90.5846442 40.5653961,90.2760956 40.8796712,90.2125912 L41.0669943,90.1749717 C41.3812694,90.1118124 41.6896799,90.3171664 41.7531559,90.6312372 C41.8162869,90.945308 41.6113699,91.2538566 41.2970948,91.3173611" id="Fill-63" fill="#375471" fill-rule="nonzero" mask="url(#mask-20)"></path>
                </g>
                <g id="Fill-64-Clipped">
                    <mask id="mask-22" fill="white">
                        <use xlink:href="#path-21"></use>
                    </mask>
                    <g id="path-1"></g>
                    <path d="M42.1272157,92.6820504 L41.9395476,92.720015 C41.6252725,92.7831743 41.316862,92.5778204 41.253731,92.2637496 C41.190255,91.9496788 41.395517,91.640785 41.7097921,91.5776257 L41.8974603,91.5396611 C42.2113904,91.4765018 42.5201459,91.6818558 42.5832769,91.9959265 C42.6464079,92.3099973 42.4411459,92.6188912 42.1272157,92.6820504" id="Fill-64" fill="#375471" fill-rule="nonzero" mask="url(#mask-22)"></path>
                </g>
                <g id="Fill-65-Clipped">
                    <mask id="mask-24" fill="white">
                        <use xlink:href="#path-23"></use>
                    </mask>
                    <g id="path-1"></g>
                    <path d="M44.6262721,99.1910124 C43.6565384,99.891977 42.2904249,99.6717823 41.5894293,98.7019593 L35.5088441,90.2831363 C34.8081934,89.3133133 35.0282895,87.9462425 35.9980231,87.2452779 C36.9677568,86.5443133 38.3342153,86.764508 39.0348659,87.734331 L45.1151061,96.1528088 C45.8157568,97.1226319 45.5960057,98.4900478 44.6262721,99.1910124" id="Fill-65" fill="#2B455E" fill-rule="nonzero" mask="url(#mask-24)"></path>
                </g>
                <g id="Fill-66-Clipped">
                    <mask id="mask-26" fill="white">
                        <use xlink:href="#path-25"></use>
                    </mask>
                    <g id="path-1"></g>
                    <path d="M40.0160528,75.6510611 L41.3435288,82.2479283 L42.6710048,88.8447956 C42.6710048,88.8447956 56.7481838,85.2633531 61.2159961,91.227592 L58.70559,78.7510434 L56.1948389,66.2744947 C54.3819786,73.5039903 40.0160528,75.6510611 40.0160528,75.6510611" id="Fill-66" fill="#FFFFFF" fill-rule="nonzero" mask="url(#mask-26)"></path>
                </g>
                <g id="Fill-67-Clipped">
                    <mask id="mask-28" fill="white">
                        <use xlink:href="#path-27"></use>
                    </mask>
                    <g id="path-1"></g>
                    <path d="M61.3892096,92.088008 C60.8117162,92.2043177 60.2442271,91.8267425 60.1276245,91.2489903 L55.1830524,66.6762292 C55.0667948,66.098477 55.4442009,65.5303885 56.0216943,65.4140788 C56.5991878,65.297769 57.1670218,65.6753442 57.2832795,66.2530965 L62.2278515,90.8262027 C62.3441092,91.4039549 61.9667031,91.9716982 61.3892096,92.088008" id="Fill-67" fill="#FEC634" fill-rule="nonzero" mask="url(#mask-28)"></path>
                </g>
                <g id="Fill-68-Clipped">
                    <mask id="mask-30" fill="white">
                        <use xlink:href="#path-29"></use>
                    </mask>
                    <g id="path-1"></g>
                    <path d="M40.0160528,75.6510611 L32.0270485,77.5586097 C30.5722755,77.8516274 29.6936162,79.6401053 30.0744721,81.5331584 L31.228769,87.2696097 C31.6096249,89.1623177 33.1116598,90.4714062 34.5667777,90.1783885 L42.6710048,88.8447956 L40.0160528,75.6510611 Z" id="Fill-68" fill="#395273" fill-rule="nonzero" mask="url(#mask-30)"></path>
                </g>
                <g id="Fill-69-Clipped">
                    <mask id="mask-32" fill="white">
                        <use xlink:href="#path-31"></use>
                    </mask>
                    <g id="path-1"></g>
                    <path d="M33.4281428,80.4100965 L29.9876755,81.1027779 L30.1608546,81.9631938 L33.6009769,81.2705124 C33.8376319,81.2228841 33.9921821,80.9902646 33.9445751,80.7538487 C33.8969681,80.5170876 33.6647978,80.3624681 33.4281428,80.4100965" id="Fill-69" fill="#2B455E" fill-rule="nonzero" mask="url(#mask-32)"></path>
                </g>
                <g id="Fill-70-Clipped">
                    <mask id="mask-34" fill="white">
                        <use xlink:href="#path-33"></use>
                    </mask>
                    <g id="path-1"></g>
                    <path d="M33.7166825,81.844054 L30.2762153,82.5370805 L30.4493943,83.3974965 L33.8898616,82.7044699 C34.1261716,82.6568416 34.2807218,82.4245673 34.2334598,82.1878062 C34.1855079,81.9510451 33.9533376,81.7964257 33.7166825,81.844054" id="Fill-70" fill="#2B455E" fill-rule="nonzero" mask="url(#mask-34)"></path>
                </g>
                <g id="Fill-71-Clipped">
                    <mask id="mask-36" fill="white">
                        <use xlink:href="#path-35"></use>
                    </mask>
                    <g id="path-1"></g>
                    <path d="M34.0052223,83.2781841 L30.564755,83.9712106 L30.7379341,84.8316265 L34.1784013,84.1386 C34.4147114,84.0909717 34.5692616,83.8583522 34.5219996,83.6219363 C34.4740476,83.3851752 34.2418773,83.2305558 34.0052223,83.2781841" id="Fill-71" fill="#2B455E" fill-rule="nonzero" mask="url(#mask-36)"></path>
                </g>
                <g id="Fill-72-Clipped">
                    <mask id="mask-38" fill="white">
                        <use xlink:href="#path-37"></use>
                    </mask>
                    <g id="path-1"></g>
                    <path d="M34.293762,84.7123142 L30.8536397,85.4053407 L31.0264738,86.2657566 L34.466941,85.5727301 C34.7032511,85.5251018 34.8581463,85.2924823 34.8105393,85.0560664 C34.7625873,84.8193053 34.530417,84.6646858 34.293762,84.7123142" id="Fill-72" fill="#2B455E" fill-rule="nonzero" mask="url(#mask-38)"></path>
                </g>
                <g id="Fill-73-Clipped">
                    <mask id="mask-40" fill="white">
                        <use xlink:href="#path-39"></use>
                    </mask>
                    <g id="path-1"></g>
                    <path d="M34.5823362,86.1464097 L31.142214,86.8390912 L31.315393,87.6995071 L34.7555153,87.0068257 C34.9918253,86.9591973 35.1467205,86.7265779 35.0991135,86.4901619 C35.0511616,86.2534009 34.8189913,86.0987814 34.5823362,86.1464097" id="Fill-73" fill="#2B455E" fill-rule="nonzero" mask="url(#mask-40)"></path>
                </g>
                <g id="Fill-74-Clipped">
                    <mask id="mask-42" fill="white">
                        <use xlink:href="#path-41"></use>
                    </mask>
                    <g id="path-1"></g>
                    <polygon id="Fill-74" fill="#496E99" fill-rule="nonzero" mask="url(#mask-42)" points="206.835903 90.3960292 180.49889 99.6010646 175.633317 85.6663301 201.969986 76.4612947"></polygon>
                </g>
                <g id="Fill-75-Clipped">
                    <mask id="mask-44" fill="white">
                        <use xlink:href="#path-43"></use>
                    </mask>
                    <g id="path-1"></g>
                    <polygon id="Fill-75" fill="#395273" fill-rule="nonzero" mask="url(#mask-44)" points="175.633248 85.6664681 191.234541 88.0313177 180.498821 99.6012027"></polygon>
                </g>
                <g id="Fill-76-Clipped">
                    <mask id="mask-46" fill="white">
                        <use xlink:href="#path-45"></use>
                    </mask>
                    <g id="path-1"></g>
                    <polygon id="Fill-76" fill="#395273" fill-rule="nonzero" mask="url(#mask-46)" points="201.969813 76.4614673 191.234438 88.0313522 206.83573 90.3962018"></polygon>
                </g>
                <g id="Fill-77-Clipped">
                    <mask id="mask-48" fill="white">
                        <use xlink:href="#path-47"></use>
                    </mask>
                    <g id="path-1"></g>
                    <polygon id="Fill-77" fill="#395273" fill-rule="nonzero" mask="url(#mask-48)" points="175.633248 85.6664681 185.735589 72.283946 201.969917 76.4614327"></polygon>
                </g>
                <g id="Fill-78-Clipped">
                    <mask id="mask-50" fill="white">
                        <use xlink:href="#path-49"></use>
                    </mask>
                    <g id="path-1"></g>
                    <polygon id="Fill-78" fill="#FFFFFF" fill-rule="nonzero" mask="url(#mask-50)" points="175.633248 85.6664681 174.893615 83.5487336 201.230283 74.3436982 201.969917 76.4614327 191.234541 88.0313177"></polygon>
                </g>
                <g id="Fill-79-Clipped">
                    <mask id="mask-52" fill="white">
                        <use xlink:href="#path-51"></use>
                    </mask>
                    <g id="path-1"></g>
                    <path d="M196.402348,79.0922761 L181.626934,84.2564973 C181.367165,84.3472673 181.080488,84.208869 180.989759,83.9489841 C180.899375,83.6894442 181.037366,83.4026389 181.297134,83.311869 L196.072549,78.1476478 C196.332318,78.0568779 196.618995,78.194931 196.709724,78.4548159 C196.800108,78.7147009 196.661772,79.0015062 196.402348,79.0922761" id="Fill-79" fill="#E0E1E0" fill-rule="nonzero" mask="url(#mask-52)"></path>
                </g>
                <g id="Fill-80-Clipped">
                    <mask id="mask-54" fill="white">
                        <use xlink:href="#path-53"></use>
                    </mask>
                    <g id="path-1"></g>
                    <path d="M197.083887,81.0437602 L182.308472,86.2079814 C182.048704,86.2987513 181.762027,86.1603531 181.671298,85.9008133 C181.580569,85.6409283 181.718905,85.354123 181.978328,85.2633531 L196.754088,80.0991319 C197.013512,80.0083619 197.300534,80.1467602 197.391263,80.4063 C197.481647,80.666185 197.343656,80.9529903 197.083887,81.0437602" id="Fill-80" fill="#E0E1E0" fill-rule="nonzero" mask="url(#mask-54)"></path>
                </g>
                <g id="Fill-81-Clipped">
                    <mask id="mask-56" fill="white">
                        <use xlink:href="#path-55"></use>
                    </mask>
                    <g id="path-1"></g>
                    <path d="M212.144323,145.600426 L210.259362,144.471842 C210.020293,144.328612 209.944742,144.017992 210.091703,143.781231 L213.384175,138.477231 C213.526651,138.248063 213.832301,138.173859 214.063437,138.312603 L215.948397,139.440842 C216.187812,139.583727 216.263017,139.895036 216.116057,140.131797 L212.823585,145.435452 C212.681454,145.66462 212.375803,145.738479 212.144323,145.600426" id="Fill-81" fill="#F89B29" fill-rule="nonzero" mask="url(#mask-56)"></path>
                </g>
                <g id="Fill-82-Clipped">
                    <mask id="mask-58" fill="white">
                        <use xlink:href="#path-57"></use>
                    </mask>
                    <g id="path-1"></g>
                    <path d="M224.24081,135.980196 C222.400352,138.944886 218.484159,139.897452 215.493544,138.107249 C212.502928,136.31739 211.570452,132.462948 213.41091,129.497912 C215.251369,126.533222 219.167906,125.580656 222.158522,127.370859 C225.149138,129.160718 226.081269,133.01516 224.24081,135.980196" id="Fill-82" fill="#B7E1DC" fill-rule="nonzero" mask="url(#mask-58)"></path>
                </g>
            </g>
            <g id="Group-86" transform="translate(210.000000, 138.000000)">
                <g id="Fill-84-Clipped">
                    <mask id="mask-60" fill="white">
                        <use xlink:href="#path-59"></use>
                    </mask>
                    <g id="path-3"></g>
                    <path d="M5.41596667,-0.0276173913 C2.59463333,-1.78866087 1.71496667,-5.58135652 3.4513,-8.49857391 C5.1873,-11.4157913 8.88196667,-12.3531826 11.7033,-10.5914435 C14.5246333,-8.8304 15.4043,-5.03770435 13.6679667,-2.12083478 C11.9316333,0.796730435 8.23696667,1.73342609 5.41596667,-0.0276173913 M12.9609667,-12.7041391 C9.0113,-15.1702261 3.83896667,-13.8582261 1.40796667,-9.77405217 C-1.0227,-5.68987826 0.208633333,-0.38066087 4.1583,2.08507826 C8.10796667,4.55081739 13.2806333,3.23916522 15.7113,-0.845008696 C18.1423,-4.92918261 16.9106333,-10.2384 12.9609667,-12.7041391" id="Fill-84" fill="#E38925" fill-rule="nonzero" mask="url(#mask-60)"></path>
                </g>
            </g>
            <g id="Group-107" transform="translate(17.000000, 124.000000)" fill-rule="nonzero">
                <path d="M197.911746,14.1874087 C194.99791,12.4263652 194.089746,8.63332174 195.882664,5.71645217 C197.675926,2.79923478 201.49173,1.86184348 204.405566,3.62323478 C207.319402,5.38427826 208.22791,9.17732174 206.434648,12.0941913 C204.641385,15.0114087 200.825582,15.9484522 197.911746,14.1874087 M205.704467,1.51053913 C201.624959,-0.9552 196.283385,0.356452174 193.77268,4.44097391 C191.26232,8.5248 192.534025,13.8343652 196.613189,16.3001043 C200.692352,18.7658435 206.034615,17.4541913 208.544975,13.3696696 C211.055336,9.28584348 209.783631,3.97627826 205.704467,1.51053913" id="Fill-87" fill="#FEC634"></path>
                <path d="M206.055374,12.3623304 C204.602587,14.7258087 201.511456,15.485113 199.150505,14.0579826 C196.790243,12.6312 196.05421,9.55850435 197.506997,7.19537391 C198.959784,4.83189565 202.050915,4.0725913 204.411866,5.49972174 C206.772128,6.92650435 207.508161,9.9992 206.055374,12.3623304" id="Fill-89" fill="#D2ECE8"></path>
                <path d="M205.025616,13.0865043 C204.311961,14.2475478 202.793075,14.6204174 201.633256,13.9195478 C200.473436,13.2186783 200.112305,11.7087652 200.825961,10.5477217 C201.539616,9.38667826 203.058157,9.0138087 204.217977,9.71467826 C205.377452,10.4155478 205.739272,11.925113 205.025616,13.0865043" id="Fill-91" fill="#EAF6F4"></path>
                <path d="M204.336748,3.73530435 C201.489354,2.01426087 197.747223,2.93321739 195.994928,5.784 C194.242633,8.63478261 195.133584,12.354087 197.980633,14.0754783 C200.82837,15.7965217 204.570502,14.8772174 206.322797,12.0267826 C208.074748,9.176 207.184141,5.45634783 204.336748,3.73530435 M197.823305,14.3314783 C194.834764,12.5252174 193.900092,8.62121739 195.738797,5.62921739 C197.57819,2.63756522 201.505534,1.67269565 204.494075,3.47930435 C207.482616,5.28556522 208.417633,9.18956522 206.578584,12.1812174 C204.73919,15.1732174 200.811846,16.1377391 197.823305,14.3314783" id="Fill-93" fill="#F89B29"></path>
                <polygon id="Fill-95" fill="#FDC93B" points="192.200848 28.0016 188.14647 25.5508174 191.004192 20.9010783 195.058913 23.3518609"></polygon>
                <path d="M186.713479,27.8813565 C186.548233,28.1502261 186.629134,28.5011826 186.893528,28.6611826 L189.986725,30.5307478 C190.251118,30.6907478 190.60261,30.6010087 190.767856,30.3321391 L192.200675,28.0017043 L188.146298,25.5509217 L186.713479,27.8813565 Z" id="Fill-97" fill="#465A59"></path>
                <path d="M196.283557,20.2869217 L193.190705,18.4170087 C192.926311,18.2573565 192.576541,18.3432696 192.414049,18.6079652 L191.004295,20.9011826 L195.058672,23.3519652 L196.468426,21.0587478 C196.631262,20.7940522 196.548295,20.4465739 196.283557,20.2869217" id="Fill-99" fill="#465A59"></path>
                <polygon id="Fill-101" fill="#F89B29" points="195.006379 23.4370783 190.952002 20.9862957 191.00433 20.9010783 195.058707 23.3518609"></polygon>
                <polygon id="Fill-103" fill="#F89B29" points="192.186044 28.0257391 188.131667 25.5749565 188.183995 25.4893913 192.238372 27.9401739"></polygon>
                <path d="M7.47269508,26.388487 C6.14831803,26.1050087 5.30212131,24.7898783 5.58269508,23.4521391 C5.86361311,22.1140522 7.16458033,21.2590957 8.48930164,21.5425739 C9.81367869,21.8264 10.6595311,23.1408348 10.3789574,24.4792696 C10.0980393,25.8170087 8.79707213,26.6719652 7.47269508,26.388487 M15.680941,24.208313 L14.4088918,23.9359652 C14.406482,23.2305739 14.289777,22.5425739 14.0728918,21.8942261 L15.2113672,21.1464 C15.3332361,21.0660522 15.3683508,20.8994435 15.2888262,20.7759652 L13.9623836,18.7144 C13.882859,18.5912696 13.7179574,18.5557913 13.5957443,18.6361391 L12.504777,19.3526609 C12.0231541,18.8698783 11.4637279,18.4590957 10.8392361,18.1467478 L11.1204984,16.8065739 C11.1507934,16.6625739 11.0588754,16.5196174 10.9160066,16.4893565 L8.53543279,15.9794435 C8.39256393,15.9488348 8.25141639,16.0417043 8.22112131,16.1857043 L7.95156393,17.4709217 C7.2534,17.4733565 6.57244918,17.5916174 5.93074426,17.8104 L5.19058033,16.6601391 C5.11105574,16.5370087 4.9461541,16.5015304 4.82394098,16.5818783 L2.78384262,17.9224 C2.66162951,18.0027478 2.62651475,18.1693565 2.70603934,18.2928348 L3.41556393,19.3950957 C2.93738361,19.8817043 2.5311541,20.4465739 2.2216623,21.0775304 L0.895219672,20.7933565 C0.752695082,20.7627478 0.611203279,20.8559652 0.581252459,20.9999652 L0.0765639344,23.4055304 C0.0462688525,23.5495304 0.138186885,23.6921391 0.280711475,23.7227478 L1.55276066,23.9950957 C1.55551475,24.700487 1.67221967,25.388487 1.88876066,26.0368348 L0.750629508,26.7850087 C0.628416393,26.8650087 0.593645902,27.0316174 0.673170492,27.1550957 L1.99961311,29.2166609 C2.0791377,29.3397913 2.24403934,29.3752696 2.36625246,29.2949217 L3.45721967,28.5784 C3.93884262,29.0615304 4.49792459,29.4716174 5.12241639,29.784313 L4.8411541,31.124487 C4.81120328,31.268487 4.90312131,31.4110957 5.0456459,31.4417043 L7.42656393,31.9516174 C7.56908852,31.9822261 7.71023607,31.8893565 7.74053115,31.7453565 L8.01008852,30.4601391 C8.70825246,30.4577043 9.38920328,30.3394435 10.0312525,30.120313 L10.7714164,31.2705739 C10.8505967,31.3944 11.0158426,31.4295304 11.1377115,31.3491826 L13.1781541,30.0086609 C13.3003672,29.9286609 13.3351377,29.7617043 13.2556131,29.6385739 L12.5464328,28.536313 C13.0242689,28.0493565 13.4308426,27.484487 13.7403344,26.8535304 L15.0664328,27.1373565 C15.2089574,27.1679652 15.3504492,27.0754435 15.3807443,26.9314435 L15.8854328,24.5258783 C15.9153836,24.3815304 15.8234656,24.2389217 15.680941,24.208313" id="Fill-105" fill="#496E99"></path>
            </g>
            <g id="Group-110" transform="translate(17.000000, 139.000000)">
                <g id="Fill-108-Clipped">
                    <mask id="mask-62" fill="white">
                        <use xlink:href="#path-61"></use>
                    </mask>
                    <g id="path-5"></g>
                    <polygon id="Fill-108" fill="#2B455E" fill-rule="nonzero" mask="url(#mask-62)" points="6.9163234 19.6498383 18.6273021 20.6421787 20.6902809 -3.70505532 8.97964255 -4.69773617"></polygon>
                </g>
            </g>
            <g id="Group-115" transform="translate(9.000000, 137.000000)" fill-rule="nonzero">
                <path d="M4.70596552,6.44067857 C3.92355172,6.26925 3.42389655,5.47282143 3.58975862,4.66246429 C3.75562069,3.85246429 4.52424138,3.33496429 5.30631034,3.50639286 C6.08872414,3.67817857 6.58837931,4.47425 6.42286207,5.28460714 C6.257,6.09460714 5.48837931,6.61210714 4.70596552,6.44067857 M9.55458621,5.12067857 L8.8032069,4.95567857 C8.80182759,4.52853571 8.73286207,4.11175 8.60493103,3.71925 L9.277,3.26639286 C9.34941379,3.21817857 9.37010345,3.11675 9.3232069,3.04210714 L8.53941379,1.79389286 C8.49251724,1.71889286 8.39493103,1.69782143 8.32286207,1.74639286 L7.67837931,2.18032143 C7.39389655,1.88782143 7.06355172,1.63960714 6.69493103,1.44996429 L6.8607931,0.638535714 C6.87872414,0.551392857 6.82424138,0.464964286 6.74010345,0.446392857 L5.33355172,0.137821429 C5.24941379,0.11925 5.16596552,0.175321429 5.14803448,0.262821429 L4.98906897,1.04103571 C4.57665517,1.04246429 4.17424138,1.11389286 3.79527586,1.24639286 L3.35803448,0.550321429 C3.31113793,0.475321429 3.21355172,0.453892857 3.14148276,0.502464286 L1.93631034,1.31425 C1.86424138,1.36282143 1.84355172,1.46353571 1.89044828,1.53817857 L2.30941379,2.20603571 C2.027,2.50067857 1.787,2.84282143 1.60424138,3.22460714 L0.820793103,3.05282143 C0.736655172,3.03425 0.653206897,3.09032143 0.635275862,3.17782143 L0.337344828,4.63425 C0.319068966,4.72175 0.373551724,4.80817857 0.457689655,4.82639286 L1.20906897,4.99139286 C1.2107931,5.41889286 1.27941379,5.83532143 1.40768966,6.22782143 L0.735275862,6.68067857 C0.663206897,6.72925 0.642517241,6.83032143 0.689413793,6.90496429 L1.4732069,8.15317857 C1.52010345,8.22782143 1.61734483,8.24925 1.68941379,8.20067857 L2.33424138,7.76675 C2.61837931,8.05925 2.94872414,8.30782143 3.31768966,8.49710714 L3.15182759,9.30853571 C3.13389655,9.39567857 3.18803448,9.48246429 3.27217241,9.50067857 L4.67872414,9.80960714 C4.76286207,9.82782143 4.84631034,9.77175 4.86424138,9.68460714 L5.02355172,8.90603571 C5.43596552,8.90460714 5.83803448,8.83317857 6.21734483,8.70067857 L6.65424138,9.39675 C6.70148276,9.47175 6.79872414,9.49317857 6.8707931,9.44460714 L8.07596552,8.63317857 C8.14837931,8.58425 8.16906897,8.48353571 8.12217241,8.40889286 L7.70286207,7.74139286 C7.98527586,7.44639286 8.22562069,7.10425 8.40803448,6.72246429 L9.19182759,6.89460714 C9.27596552,6.91282143 9.35941379,6.85639286 9.37734483,6.76925 L9.67527586,5.31282143 C9.6932069,5.22567857 9.63872414,5.13889286 9.55458621,5.12067857" id="Fill-111" fill="#375471"></path>
                <path d="M4.70596552,6.44067857 C3.92355172,6.26925 3.42389655,5.47282143 3.58975862,4.66246429 C3.75562069,3.85246429 4.52424138,3.33496429 5.30631034,3.50639286 C6.08872414,3.67817857 6.58837931,4.47425 6.42286207,5.28460714 C6.257,6.09460714 5.48837931,6.61210714 4.70596552,6.44067857 M9.55458621,5.12067857 L8.8032069,4.95567857 C8.80182759,4.52853571 8.73286207,4.11175 8.60493103,3.71925 L9.277,3.26639286 C9.34941379,3.21817857 9.37010345,3.11675 9.3232069,3.04210714 L8.53941379,1.79389286 C8.49251724,1.71889286 8.39493103,1.69782143 8.32286207,1.74639286 L7.67837931,2.18032143 C7.39389655,1.88782143 7.06355172,1.63960714 6.69493103,1.44996429 L6.8607931,0.638535714 C6.87872414,0.551392857 6.82424138,0.464964286 6.74010345,0.446392857 L5.33355172,0.137821429 C5.24941379,0.11925 5.16596552,0.175321429 5.14803448,0.262821429 L4.98906897,1.04103571 C4.57665517,1.04246429 4.17424138,1.11389286 3.79527586,1.24639286 L3.35803448,0.550321429 C3.31113793,0.475321429 3.21355172,0.453892857 3.14148276,0.502464286 L1.93631034,1.31425 C1.86424138,1.36282143 1.84355172,1.46353571 1.89044828,1.53817857 L2.30941379,2.20603571 C2.027,2.50067857 1.787,2.84282143 1.60424138,3.22460714 L0.820793103,3.05282143 C0.736655172,3.03425 0.653206897,3.09032143 0.635275862,3.17782143 L0.337344828,4.63425 C0.319068966,4.72175 0.373551724,4.80817857 0.457689655,4.82639286 L1.20906897,4.99139286 C1.2107931,5.41889286 1.27941379,5.83532143 1.40768966,6.22782143 L0.735275862,6.68067857 C0.663206897,6.72925 0.642517241,6.83032143 0.689413793,6.90496429 L1.4732069,8.15317857 C1.52010345,8.22782143 1.61734483,8.24925 1.68941379,8.20067857 L2.33424138,7.76675 C2.61837931,8.05925 2.94872414,8.30782143 3.31768966,8.49710714 L3.15182759,9.30853571 C3.13389655,9.39567857 3.18803448,9.48246429 3.27217241,9.50067857 L4.67872414,9.80960714 C4.76286207,9.82782143 4.84631034,9.77175 4.86424138,9.68460714 L5.02355172,8.90603571 C5.43596552,8.90460714 5.83803448,8.83317857 6.21734483,8.70067857 L6.65424138,9.39675 C6.70148276,9.47175 6.79872414,9.49317857 6.8707931,9.44460714 L8.07596552,8.63317857 C8.14837931,8.58425 8.16906897,8.48353571 8.12217241,8.40889286 L7.70286207,7.74139286 C7.98527586,7.44639286 8.22562069,7.10425 8.40803448,6.72246429 L9.19182759,6.89460714 C9.27596552,6.91282143 9.35941379,6.85639286 9.37734483,6.76925 L9.67527586,5.31282143 C9.6932069,5.22567857 9.63872414,5.13889286 9.55458621,5.12067857" id="Fill-113" fill="#496E99"></path>
            </g>
            <g id="Group-118" transform="translate(9.000000, 137.000000)">
                <g id="Fill-116-Clipped">
                    <mask id="mask-64" fill="white">
                        <use xlink:href="#path-63"></use>
                    </mask>
                    <g id="path-7"></g>
                    <polygon id="Fill-116" fill="#2B455E" fill-rule="nonzero" mask="url(#mask-64)" points="4.42344828 12.0967143 11.4193103 12.7106429 12.6513793 -2.35292857 5.65586207 -2.96685714"></polygon>
                </g>
            </g>
            <g id="Group-123" transform="translate(16.000000, 128.000000)" fill-rule="nonzero">
                <path d="M5.70765882,7.62363529 C4.7346,7.41716471 4.11271765,6.46104706 4.31883529,5.48763529 C4.52495294,4.51422353 5.48142353,3.89269412 6.45483529,4.09916471 C7.42824706,4.30528235 8.04977647,5.26175294 7.84365882,6.23481176 C7.63718824,7.20787059 6.68107059,7.83010588 5.70765882,7.62363529 M11.7401294,6.03787059 L10.8051882,5.83951765 C10.8034235,5.32669412 10.7173059,4.82622353 10.5584824,4.35469412 L11.3949529,3.81081176 C11.4846,3.75222353 11.5100118,3.63081176 11.4517765,3.54151765 L10.4769529,2.04222353 C10.4183647,1.95222353 10.2973059,1.92645882 10.2076588,1.98469412 L9.40577647,2.50634118 C9.05177647,2.15481176 8.64095294,1.85622353 8.18177647,1.62892941 L8.3886,0.654105882 C8.41083529,0.549282353 8.34307059,0.445517647 8.23824706,0.423282353 L6.48871765,0.0526941176 C6.38389412,0.0301058824 6.28012941,0.0978705882 6.25789412,0.202694118 L6.05989412,1.13728235 C5.54671765,1.1394 5.04624706,1.22516471 4.57471765,1.38434118 L4.03083529,0.547870588 C3.97224706,0.457870588 3.85118824,0.432458824 3.76118824,0.490694118 L2.26189412,1.46587059 C2.17189412,1.52410588 2.14648235,1.64551765 2.20471765,1.73481176 L2.72601176,2.53669412 C2.37483529,2.89069412 2.07624706,3.30187059 1.8486,3.76069412 L0.874129412,3.55422353 C0.769305882,3.53163529 0.665188235,3.5994 0.642952941,3.70422353 L0.272364706,5.45410588 C0.250129412,5.55857647 0.317894118,5.66234118 0.422364706,5.68457647 L1.35730588,5.88257647 C1.35907059,6.39575294 1.44483529,6.89622353 1.60436471,7.36775294 L0.767541176,7.91163529 C0.677894118,7.97022353 0.652129412,8.09128235 0.710717647,8.18128235 L1.68554118,9.68057647 C1.74412941,9.77057647 1.86518824,9.79598824 1.95518824,9.73775294 L2.75671765,9.21645882 C3.11071765,9.56798824 3.52154118,9.86622353 3.98036471,10.0938706 L3.77389412,11.0686941 C3.75165882,11.1735176 3.81942353,11.2772824 3.92389412,11.2995176 L5.67377647,11.6701059 C5.7786,11.6923412 5.88236471,11.6249294 5.9046,11.5201059 L6.10295294,10.5855176 C6.61577647,10.5834 7.11624706,10.4976353 7.58777647,10.3381059 L8.13201176,11.1749294 C8.19024706,11.2645765 8.31130588,11.2903412 8.40130588,11.2321059 L9.9006,10.2569294 C9.99024706,10.1986941 10.0160118,10.0772824 9.95777647,9.98763529 L9.43612941,9.18575294 C9.78765882,8.83175294 10.0862471,8.42092941 10.3135412,7.96210588 L11.2883647,8.16857647 C11.3931882,8.19045882 11.4969529,8.12304706 11.5191882,8.01857647 L11.8901294,6.26869412 C11.9123647,6.16387059 11.8449529,6.06010588 11.7401294,6.03787059" id="Fill-119" fill="#375471"></path>
                <path d="M5.70765882,7.62363529 C4.7346,7.41716471 4.11271765,6.46104706 4.31883529,5.48763529 C4.52495294,4.51422353 5.48142353,3.89269412 6.45483529,4.09916471 C7.42824706,4.30528235 8.04977647,5.26175294 7.84365882,6.23481176 C7.63718824,7.20787059 6.68107059,7.83010588 5.70765882,7.62363529 M11.7401294,6.03787059 L10.8051882,5.83951765 C10.8034235,5.32669412 10.7173059,4.82622353 10.5584824,4.35469412 L11.3949529,3.81081176 C11.4846,3.75222353 11.5100118,3.63081176 11.4517765,3.54151765 L10.4769529,2.04222353 C10.4183647,1.95222353 10.2973059,1.92645882 10.2076588,1.98469412 L9.40577647,2.50634118 C9.05177647,2.15481176 8.64095294,1.85622353 8.18177647,1.62892941 L8.3886,0.654105882 C8.41083529,0.549282353 8.34307059,0.445517647 8.23824706,0.423282353 L6.48871765,0.0526941176 C6.38389412,0.0301058824 6.28012941,0.0978705882 6.25789412,0.202694118 L6.05989412,1.13728235 C5.54671765,1.1394 5.04624706,1.22516471 4.57471765,1.38434118 L4.03083529,0.547870588 C3.97224706,0.457870588 3.85118824,0.432458824 3.76118824,0.490694118 L2.26189412,1.46587059 C2.17189412,1.52410588 2.14648235,1.64551765 2.20471765,1.73481176 L2.72601176,2.53669412 C2.37483529,2.89069412 2.07624706,3.30187059 1.8486,3.76069412 L0.874129412,3.55422353 C0.769305882,3.53163529 0.665188235,3.5994 0.642952941,3.70422353 L0.272364706,5.45410588 C0.250129412,5.55857647 0.317894118,5.66234118 0.422364706,5.68457647 L1.35730588,5.88257647 C1.35907059,6.39575294 1.44483529,6.89622353 1.60436471,7.36775294 L0.767541176,7.91163529 C0.677894118,7.97022353 0.652129412,8.09128235 0.710717647,8.18128235 L1.68554118,9.68057647 C1.74412941,9.77057647 1.86518824,9.79598824 1.95518824,9.73775294 L2.75671765,9.21645882 C3.11071765,9.56798824 3.52154118,9.86622353 3.98036471,10.0938706 L3.77389412,11.0686941 C3.75165882,11.1735176 3.81942353,11.2772824 3.92389412,11.2995176 L5.67377647,11.6701059 C5.7786,11.6923412 5.88236471,11.6249294 5.9046,11.5201059 L6.10295294,10.5855176 C6.61577647,10.5834 7.11624706,10.4976353 7.58777647,10.3381059 L8.13201176,11.1749294 C8.19024706,11.2645765 8.31130588,11.2903412 8.40130588,11.2321059 L9.9006,10.2569294 C9.99024706,10.1986941 10.0160118,10.0772824 9.95777647,9.98763529 L9.43612941,9.18575294 C9.78765882,8.83175294 10.0862471,8.42092941 10.3135412,7.96210588 L11.2883647,8.16857647 C11.3931882,8.19045882 11.4969529,8.12304706 11.5191882,8.01857647 L11.8901294,6.26869412 C11.9123647,6.16387059 11.8449529,6.06010588 11.7401294,6.03787059" id="Fill-121" fill="#496E99"></path>
            </g>
            <g id="Group-126" transform="translate(16.000000, 128.000000)">
                <g id="Fill-124-Clipped">
                    <mask id="mask-66" fill="white">
                        <use xlink:href="#path-65"></use>
                    </mask>
                    <g id="path-9"></g>
                    <polygon id="Fill-124" fill="#2B455E" fill-rule="nonzero" mask="url(#mask-66)" points="5.35627059 14.4177529 14.0598 15.1554 15.5926235 -2.93954118 6.88944706 -3.67683529"></polygon>
                </g>
            </g>
            <g id="Group-148">
                <g id="Group-129" transform="translate(88.659389, 0.000000)">
                    <g id="Fill-127-Clipped">
                        <mask id="mask-68" fill="white">
                            <use xlink:href="#path-67"></use>
                        </mask>
                        <g id="path-11"></g>
                        <path d="M53.9826319,12.8225788 L53.6921603,12.9240478 L50.5956362,18.6618796 L45.7269594,18.6618796 C47.4825533,14.6624814 48.3298197,10.3027646 48.735514,6.8348708 L57.7977454,6.8348708 C57.7156406,8.34862301 57.1671253,11.7074549 53.9826319,12.8225788 Z M8.90709476,18.6618796 L5.81022576,12.9240478 L5.52009913,12.8225788 C2.3352607,11.7074549 1.78709039,8.34862301 1.70498559,6.8348708 L10.7668721,6.8348708 C11.1729114,10.3027646 12.0198328,14.6624814 13.7754266,18.6618796 L8.90709476,18.6618796 Z M59.3894747,5.99309204 L59.3449725,5.24622478 L48.8983437,5.24622478 C49.0328852,3.71349027 49.0808371,2.44029558 49.0960162,1.5688354 L49.6272825,1.5688354 C49.9767454,1.5688354 50.2627323,1.28272035 50.2627323,0.932755752 C50.2627323,0.583136283 49.9767454,0.297021239 49.6272825,0.297021239 L49.0953262,0.297021239 L29.7513655,0.297021239 L10.4074048,0.297021239 L9.87544847,0.297021239 C9.52564061,0.297021239 9.23999869,0.583136283 9.23999869,0.932755752 C9.23999869,1.28272035 9.52564061,1.5688354 9.87544847,1.5688354 L10.4067148,1.5688354 C10.4218939,2.44029558 10.4695009,3.71349027 10.6040424,5.24622478 L0.157758515,5.24622478 L0.112911354,5.99309204 C-0.0185253275,8.18157876 0.785618777,12.6410389 4.700431,14.2110478 L7.96012969,20.2505257 L14.5326537,20.2505257 C16.9343917,24.8922159 20.7277716,28.774269 26.7076231,29.7585876 L26.7076231,34.1076053 L26.2125795,34.1076053 C26.2125795,34.1076053 24.7422825,36.4023929 26.2125795,38.285092 L26.7076231,38.285092 L26.7076231,40.9329504 L26.5313393,40.9329504 C25.7064965,40.9329504 25.0313742,41.6083752 25.0313742,42.4335876 L25.0313742,45.3461628 C25.0313742,46.1713752 25.7064965,46.8468 26.5313393,46.8468 L26.7076231,46.8468 L32.7947629,46.8468 L32.9713917,46.8468 C33.7962345,46.8468 34.4710118,46.1713752 34.4710118,45.3461628 L34.4710118,42.4335876 C34.4710118,41.6083752 33.7962345,40.9329504 32.9713917,40.9329504 L32.7947629,40.9329504 L32.7947629,38.285092 L33.2901515,38.285092 C34.7601035,36.4023929 33.2901515,34.1076053 33.2901515,34.1076053 L32.7947629,34.1076053 L32.7947629,29.7585876 C38.7749594,28.774269 42.5679943,24.8922159 44.9697323,20.2505257 L51.5426013,20.2505257 L54.8023,14.2110478 C58.7171122,12.6410389 59.5209114,8.18157876 59.3894747,5.99309204 Z" id="Fill-127" fill="#FEC634" fill-rule="nonzero" mask="url(#mask-68)"></path>
                    </g>
                </g>
                <g id="Fill-130-Clipped">
                    <mask id="mask-70" fill="white">
                        <use xlink:href="#path-69"></use>
                    </mask>
                    <g id="path-13"></g>
                    <polygon id="Fill-130" fill="#F89B29" fill-rule="nonzero" mask="url(#mask-70)" points="115.366908 38.7537301 121.454048 38.7537301 121.454048 38.2852301 115.366908 38.2852301"></polygon>
                </g>
                <g id="Fill-132-Clipped">
                    <mask id="mask-72" fill="white">
                        <use xlink:href="#path-71"></use>
                    </mask>
                    <g id="path-13"></g>
                    <polygon id="Fill-132" fill="#FAE630" fill-rule="nonzero" mask="url(#mask-72)" points="115.366908 34.2525088 121.454048 34.2525088 121.454048 33.7840088 115.366908 33.7840088"></polygon>
                </g>
                <g id="Fill-133-Clipped">
                    <mask id="mask-74" fill="white">
                        <use xlink:href="#path-73"></use>
                    </mask>
                    <g id="path-13"></g>
                    <polygon id="Fill-133" fill="#F89B29" fill-rule="nonzero" mask="url(#mask-74)" points="115.366908 30.2297965 121.454048 30.2297965 121.454048 29.7607965 115.366908 29.7607965"></polygon>
                </g>
                <g id="Fill-134-Clipped">
                    <mask id="mask-76" fill="white">
                        <use xlink:href="#path-75"></use>
                    </mask>
                    <g id="path-13"></g>
                    <polygon id="Fill-134" fill="#F89B29" fill-rule="nonzero" mask="url(#mask-76)" points="99.066345 2.09840708 137.747022 2.09840708 137.747022 1.56897345 99.066345 1.56897345"></polygon>
                </g>
                <g id="Fill-135-Clipped">
                    <mask id="mask-78" fill="white">
                        <use xlink:href="#path-77"></use>
                    </mask>
                    <g id="path-13"></g>
                    <polygon id="Fill-135" fill="#FAE630" fill-rule="nonzero" mask="url(#mask-78)" points="115.366908 41.0419602 121.454048 41.0419602 121.454048 40.6904602 115.366908 40.6904602"></polygon>
                </g>
                <g id="Fill-136-Clipped">
                    <mask id="mask-80" fill="white">
                        <use xlink:href="#path-79"></use>
                    </mask>
                    <g id="path-13"></g>
                    <path d="M131.64215,47.9448743 C131.80222,47.9448743 131.933312,47.7436619 131.933312,47.4975823 L131.933312,47.1403699 C131.933312,46.8942903 131.80222,46.6930779 131.64215,46.6930779 L105.17922,46.6930779 C105.01915,46.6930779 104.888403,46.8942903 104.888403,47.1403699 L104.888403,47.4975823 C104.888403,47.7436619 105.01915,47.9448743 105.17922,47.9448743 L105.603543,47.9448743 L105.603543,54.9307062 L105.17922,54.9307062 C105.01915,54.9307062 104.888403,55.1319186 104.888403,55.3779982 L104.888403,55.7348655 C104.888403,55.9809451 105.01915,56.1825027 105.17922,56.1825027 L131.64215,56.1825027 C131.80222,56.1825027 131.933312,55.9809451 131.933312,55.7348655 L131.933312,55.3779982 C131.933312,55.1319186 131.80222,54.9307062 131.64215,54.9307062 L131.217827,54.9307062 L131.217827,47.9448743 L131.64215,47.9448743 Z" id="Fill-136" fill="#2B455E" fill-rule="nonzero" mask="url(#mask-80)"></path>
                </g>
                <g id="Fill-137-Clipped">
                    <mask id="mask-82" fill="white">
                        <use xlink:href="#path-81"></use>
                    </mask>
                    <g id="path-13"></g>
                    <polygon id="Fill-137" fill="#375471" fill-rule="nonzero" mask="url(#mask-82)" points="110.7649 54.9092389 126.056402 54.9092389 126.056402 47.9662035 110.7649 47.9662035"></polygon>
                </g>
                <g id="Fill-138-Clipped">
                    <mask id="mask-84" fill="white">
                        <use xlink:href="#path-83"></use>
                    </mask>
                    <g id="path-13"></g>
                    <polygon id="Fill-138" fill="#1E3647" fill-rule="nonzero" mask="url(#mask-84)" points="105.603681 48.3353053 131.207961 48.3353053 131.207961 47.9448053 105.603681 47.9448053"></polygon>
                </g>
                <g id="Fill-139-Clipped">
                    <mask id="mask-86" fill="white">
                        <use xlink:href="#path-85"></use>
                    </mask>
                    <g id="path-13"></g>
                    <polygon id="Fill-139" fill="#375471" fill-rule="nonzero" mask="url(#mask-86)" points="105.608511 54.9582743 131.21279 54.9582743 131.21279 54.8712743 105.608511 54.8712743"></polygon>
                </g>
                <g id="Fill-140-Clipped">
                    <mask id="mask-88" fill="white">
                        <use xlink:href="#path-87"></use>
                    </mask>
                    <g id="path-13"></g>
                    <path d="M230.16136,121.433058 L228.398521,121.433058 C227.78377,121.433058 227.281482,120.930544 227.281482,120.315863 L227.281482,112.493774 C227.281482,111.879093 227.784115,111.37658 228.398521,111.37658 L230.161015,111.37658 C230.775421,111.37658 231.277709,111.879093 231.277709,112.493774 L231.277709,120.315863 C231.277709,120.930544 230.775421,121.433058 230.16136,121.433058" id="Fill-140" fill="#395273" fill-rule="nonzero" mask="url(#mask-88)"></path>
                </g>
                <g id="Fill-141-Clipped">
                    <mask id="mask-90" fill="white">
                        <use xlink:href="#path-89"></use>
                    </mask>
                    <g id="path-13"></g>
                    <path d="M224.617768,121.433058 L222.854929,121.433058 C222.240523,121.433058 221.73789,120.930544 221.73789,120.315863 L221.73789,114.894863 C221.73789,114.280527 222.240523,113.777668 222.854929,113.777668 L224.617768,113.777668 C225.231829,113.777668 225.734462,114.280527 225.734462,114.894863 L225.734462,120.315863 C225.734462,120.930544 225.231829,121.433058 224.617768,121.433058" id="Fill-141" fill="#496E99" fill-rule="nonzero" mask="url(#mask-90)"></path>
                </g>
                <g id="Fill-142-Clipped">
                    <mask id="mask-92" fill="white">
                        <use xlink:href="#path-91"></use>
                    </mask>
                    <g id="path-13"></g>
                    <path d="M235.704572,121.433058 L233.941734,121.433058 C233.327328,121.433058 232.824695,120.930544 232.824695,120.315863 L232.824695,108.008774 C232.824695,107.394093 233.327328,106.89158 233.941734,106.89158 L235.704572,106.89158 C236.318634,106.89158 236.821267,107.394093 236.821267,108.008774 L236.821267,120.315863 C236.821267,120.930544 236.318634,121.433058 235.704572,121.433058" id="Fill-142" fill="#496E99" fill-rule="nonzero" mask="url(#mask-92)"></path>
                </g>
                <g id="Fill-143-Clipped">
                    <mask id="mask-94" fill="white">
                        <use xlink:href="#path-93"></use>
                    </mask>
                    <g id="path-13"></g>
                    <path d="M11.6407707,117.632525 C11.4517227,117.821658 11.2112729,117.912773 10.9646135,117.946596 C10.9770328,118.027357 10.988417,118.108463 10.988417,118.19095 C10.988417,118.613392 10.8231725,119.010295 10.5244214,119.30918 C10.2249803,119.60841 9.82894541,119.772693 9.40669214,119.772693 C9.32941703,119.772693 9.25455677,119.760958 9.17969651,119.750259 C9.14519869,120.006003 9.03308079,120.242419 8.84782751,120.427755 C8.82988865,120.445012 8.80608515,120.451569 8.78676638,120.46779 L12.648107,121.433127 L11.683893,117.580065 C11.668714,117.596631 11.6569847,117.616304 11.6407707,117.632525 Z M2.69893668,112.598419 L8.84782751,118.749719 C9.15554803,119.058958 9.65680131,119.058268 9.96555677,118.749719 C10.2743122,118.441171 10.2760371,117.940728 9.96486681,117.630799 L3.81701092,111.479498 L2.69893668,112.598419 Z M7.72975328,119.86864 C7.88430349,120.022914 8.13441266,120.022914 8.28896288,119.86864 C8.44316812,119.713675 8.44316812,119.463799 8.28896288,119.30918 L2.14041703,113.156843 L1.58120742,113.715958 L7.72975328,119.86864 Z M10.5244214,117.071684 C10.6786266,117.226304 10.9290808,117.226304 11.083286,117.071684 C11.2385262,116.91741 11.2385262,116.667188 11.083286,116.512569 L4.93508515,110.360233 L4.37587555,110.920038 L10.5244214,117.071684 Z M3.81701092,109.242003 L4.3765655,109.801118 L1.02234279,113.156843 L0.463133188,112.597728 C-0.154377729,111.979941 -0.154377729,110.97802 0.463133188,110.360233 L1.58120742,109.242003 C2.19871834,108.624905 3.1995,108.624905 3.81701092,109.242003 Z" id="Fill-143" fill="#395273" fill-rule="nonzero" mask="url(#mask-94)"></path>
                </g>
                <g id="Fill-144-Clipped">
                    <mask id="mask-96" fill="white">
                        <use xlink:href="#path-95"></use>
                    </mask>
                    <g id="path-13"></g>
                    <path d="M222.434366,72.0677549 L208.926056,69.4588965 L210.558148,60.9993478 L224.066458,63.6082062 L222.434366,72.0677549 Z M225.188672,62.1859142 L218.475052,60.8892504 C218.576131,60.7674186 218.656166,60.6283301 218.688938,60.4588699 C218.793812,59.9142504 218.438484,59.3896487 217.895144,59.2847283 C217.351458,59.179808 216.822262,59.533569 216.717388,60.0781885 C216.684615,60.2476487 216.711869,60.4071 216.755681,60.5572327 L210.045855,59.2616044 C209.547017,59.1649673 209.060253,59.4976752 208.964694,59.9929407 L207.036956,69.9845336 C206.940707,70.4835956 207.269126,70.9695425 207.76831,71.0661796 L213.257257,72.1260823 L211.461991,75.6833655 C211.338489,75.9277195 211.448192,76.2141796 211.704855,76.3128876 L212.11055,76.4757903 C212.371353,76.5803655 212.682524,76.459569 212.806371,76.215215 L214.722379,72.4090912 L215.957056,72.6475779 L216.320318,76.893746 C216.344467,77.1664009 216.591816,77.3952239 216.867799,77.3945336 L217.305231,77.3945336 C217.580524,77.3983301 217.784751,77.1726133 217.760947,76.8996133 L217.421834,72.9305867 L222.911126,73.9904894 C223.407205,74.0864363 223.895694,73.7578699 223.992288,73.258808 L225.920026,63.267215 C226.015585,62.7719496 225.68889,62.2822062 225.188672,62.1859142 Z" id="Fill-144" fill="#395273" fill-rule="nonzero" mask="url(#mask-96)"></path>
                </g>
                <g id="Fill-145-Clipped">
                    <mask id="mask-98" fill="white">
                        <use xlink:href="#path-97"></use>
                    </mask>
                    <g id="path-13"></g>
                    <path d="M210.791043,68.3452912 C211.179143,68.420185 211.554134,68.1665124 211.62934,67.7778929 C211.643139,67.7067956 211.633134,67.640185 211.626235,67.5742646 C212.662204,67.0213619 214.493693,66.0546451 215.323366,65.6349637 C215.42203,65.7385035 215.544497,65.8203 215.692493,65.8486009 C215.81841,65.8731053 215.937082,65.8537779 216.04713,65.8168487 C216.437645,66.3031407 217.096209,67.1249018 217.565724,67.7109372 C217.551235,67.7502823 217.525362,67.7837602 217.517082,67.8244858 C217.442222,68.2127602 217.699576,68.5889549 218.088021,68.6635035 C218.476121,68.7387425 218.851113,68.4850699 218.926318,68.0964504 C218.939082,68.030185 218.929423,67.9625389 218.922523,67.8962735 L221.055178,66.6082381 C221.141768,66.6779549 221.241466,66.735592 221.355999,66.7576805 C221.744445,66.8325743 222.120471,66.5789018 222.195331,66.1906274 C222.270191,65.8023531 222.015597,65.4268487 221.627497,65.3519549 C221.242846,65.2777513 220.867855,65.5314239 220.792995,65.9200434 C220.775056,66.0128841 220.776781,66.1053796 220.794375,66.1923531 C220.199632,66.5502558 219.278886,67.1052292 218.709672,67.4524327 C218.612388,67.3606274 218.496475,67.2843531 218.359174,67.258123 C218.192549,67.2256805 218.035929,67.2643354 217.895178,67.3375035 C217.509493,66.8519018 216.881287,66.0705212 216.435231,65.5155478 C216.480423,65.4437602 216.513886,65.3695566 216.5301,65.2853442 C216.605305,64.8960345 216.351401,64.5205301 215.967095,64.4463265 C215.57865,64.3714327 215.203659,64.6254504 215.128453,65.0147602 C215.112239,65.0989726 215.114654,65.1838752 215.129488,65.2636009 L211.424768,67.1469903 C211.328519,67.0517336 211.209501,66.9709726 211.061506,66.9423265 C210.673405,66.8674327 210.298069,67.1211053 210.223899,67.5066186 C210.149038,67.8952381 210.402597,68.2703973 210.791043,68.3452912" id="Fill-145" fill="#395273" fill-rule="nonzero" mask="url(#mask-98)"></path>
                </g>
                <g id="Fill-146-Clipped">
                    <mask id="mask-100" fill="white">
                        <use xlink:href="#path-99"></use>
                    </mask>
                    <g id="path-13"></g>
                    <path d="M24.6701131,56.3411602 C25.1082354,57.3876027 24.6142266,58.5931513 23.5685978,59.0311248 C22.5260738,59.4677177 21.3210651,58.9738327 20.8829428,57.9273903 C20.4451655,56.8809478 20.9405541,55.6791956 21.9827332,55.2422575 C23.028707,54.8042841 24.2323358,55.2947177 24.6701131,56.3411602" id="Fill-146" fill="#395273" fill-rule="nonzero" mask="url(#mask-100)"></path>
                </g>
                <g id="Fill-147-Clipped">
                    <mask id="mask-102" fill="white">
                        <use xlink:href="#path-101"></use>
                    </mask>
                    <g id="path-13"></g>
                    <path d="M27.60981,68.6024496 C26.3019978,69.1501752 24.9420939,69.3324053 23.7767576,69.1142814 C23.3779629,69.0380071 23.0209105,68.9196265 22.71319,68.7653522 L23.1023253,68.4940779 C23.8133253,68.008131 23.9947838,67.0303699 23.5056048,66.3204319 L22.3123253,64.5847593 C22.490679,64.3618035 22.6893865,64.1509274 22.9081026,63.9476442 L23.0543734,64.2972637 C23.3855524,65.0886531 24.3056092,65.4662283 25.1004389,65.1331752 L26.9036397,64.3780248 C27.6957096,64.0460071 28.0724258,63.1255381 27.7412467,62.3341487 L27.5877314,61.9669274 C27.8885524,61.9534673 28.1810939,61.9545027 28.4625961,61.9800425 L28.8644956,64.0756885 C29.0311201,64.9209186 29.854583,65.4776177 30.6977096,65.3164407 L31.1696397,65.2232549 C30.7604956,66.5161221 29.4406092,67.8355646 27.60981,68.6024496 M31.5801638,59.5679097 L29.6645,59.9389274 C29.0111114,60.0655912 28.5312467,60.5895027 28.4243035,61.2100513 C28.052762,61.1814053 27.6698362,61.1820956 27.2734563,61.2166088 L26.835679,60.1701664 C26.5031201,59.3753257 25.5827183,58.9980956 24.7909934,59.3297681 L22.9877926,60.0849186 C22.1929629,60.4179717 21.8162467,61.3384407 22.1488057,62.1332814 L22.5896878,63.1866265 C22.2916266,63.4392637 22.0225437,63.7115735 21.7827838,63.9959628 C21.2656616,63.6370248 20.5546616,63.6076885 20.0061463,63.9845735 L18.3933734,65.0917593 C17.687893,65.5790867 17.5067795,66.5578832 17.9914738,67.2685115 L19.3241245,69.2026354 C19.8070939,69.9101575 20.7885568,70.0899717 21.4950721,69.6026442 L22.0032249,69.2540602 C22.459286,69.5505292 23.0036616,69.7652018 23.6325568,69.8849628 C24.9483035,70.1293168 26.4644825,69.9284496 27.911321,69.3223965 C30.1253908,68.3950248 31.6588188,66.7069805 31.9996572,65.0627681 L32.6171681,64.9440425 C33.4623646,64.7811398 34.0198493,63.9569628 33.8556397,63.1158743 L33.4123428,60.8090071 C33.250548,59.9630867 32.4232904,59.4067327 31.5801638,59.5679097" id="Fill-147" fill="#395273" fill-rule="nonzero" mask="url(#mask-102)"></path>
                </g>
            </g>
            <g id="Group-155" transform="translate(14.000000, 51.000000)">
                <g id="Group-151">
                    <g id="Fill-149-Clipped">
                        <mask id="mask-104" fill="white">
                            <use xlink:href="#path-103"></use>
                        </mask>
                        <g id="path-15"></g>
                        <path d="M18.0627239,4.7741375 C18.4983507,5.8163875 18.0091716,7.01195 16.9683358,7.4485125 C15.9278433,7.88473125 14.7335597,7.3948875 14.2975896,6.3526375 C13.8619627,5.3103875 14.3511418,4.114825 15.3919776,3.6782625 C16.4328134,3.24204375 17.6267537,3.7318875 18.0627239,4.7741375" id="Fill-149" fill="#395273" fill-rule="nonzero" mask="url(#mask-104)"></path>
                    </g>
                </g>
                <g id="Group-154">
                    <g id="Fill-152-Clipped">
                        <mask id="mask-106" fill="white">
                            <use xlink:href="#path-105"></use>
                        </mask>
                        <g id="path-17"></g>
                        <path d="M4.97822985,12.4275938 C5.90646866,11.787875 6.14161791,10.5163438 5.50276716,9.58684375 C4.86185672,8.65425 3.59170746,8.41878125 2.6603791,9.06021875 C1.73317015,9.70028125 1.4980209,10.9718125 2.13858806,11.90475 C2.77675224,12.8332188 4.04655821,13.0686875 4.97822985,12.4275938" id="Fill-152" fill="#395273" fill-rule="nonzero" mask="url(#mask-106)"></path>
                    </g>
                </g>
            </g>
        </g>
    </g>
</svg>