<?xml version="1.0" encoding="UTF-8"?>
<svg width="216px" height="31px" viewBox="0 0 216 31" version="1.1" xmlns="http://www.w3.org/2000/svg" xmlns:xlink="http://www.w3.org/1999/xlink">
    <!-- Generator: Sketch 43.1 (39012) - http://www.bohemiancoding.com/sketch -->
    <title>Page 1</title>
    <desc>Created with Sketch.</desc>
    <defs>
        <polygon id="path-1" points="10.9093936 0.164093333 10.9093936 12.1652267 0.102890331 12.1652267 0.102890331 0.164093333 10.9093936 0.164093333"></polygon>
        <polygon id="path-3" points="0 0.362803333 0 23.03982 26.3765635 23.03982 26.3765635 0.362803333 2.82129288e-20 0.362803333"></polygon>
    </defs>
    <g id="Page-1" stroke="none" stroke-width="1" fill="none" fill-rule="evenodd">
        <g id="Artboard" transform="translate(0.000000, -4.000000)">
            <g id="Page-1" transform="translate(0.000000, 4.000000)">
                <path d="M32.1577822,23.586815 L32.1577822,20.6567983 C33.2762006,21.3806483 34.4596736,21.8890483 35.7082012,22.1814817 C36.9567288,22.473915 38.015297,22.6201317 38.8839058,22.6201317 C40.2922075,22.6201317 41.3060181,22.3943483 41.9248173,21.9432983 C42.544137,21.4922483 42.8537968,20.9295983 42.8537968,20.2553483 C42.8537968,19.809465 42.7091154,19.4276483 42.4192322,19.110415 C42.1298694,18.7931817 41.4106259,18.4015483 40.2620222,17.935515 L39.3033778,17.5490483 L37.3709964,16.7905817 C35.2939336,15.987165 33.9855558,15.2436817 33.445863,14.559615 C32.8968023,13.885365 32.6220117,13.062315 32.6220117,12.0909817 C32.6220117,10.7228483 33.153898,9.59754833 34.2202728,8.71508167 C35.2850862,7.832615 37.0113747,7.39138167 39.4022608,7.39138167 C41.1920425,7.39138167 42.8860639,7.64919833 44.4864067,8.16483167 L44.4864067,10.6778983 C42.646663,10.0237983 40.9151702,9.69623167 39.2945304,9.69623167 C38.1136596,9.69623167 37.1914458,9.90238167 36.5258073,10.3136483 C35.8606892,10.724915 35.5281301,11.237965 35.5281301,11.8527983 C35.5281301,12.4479983 35.8180134,12.9238483 36.3972594,13.2803483 C36.9666171,13.637365 37.8966375,14.0491483 39.1862795,14.5151817 L41.0759851,15.1992483 C42.8048758,15.8238983 44.0185341,16.5027983 44.7148784,17.236465 C45.4117431,17.9701317 45.7599152,18.887215 45.7599152,19.987715 C45.7599152,21.4255983 45.203048,22.6077317 44.0898339,23.5346317 C42.9760994,24.4615317 41.196206,24.9254983 38.7491127,24.9254983 C36.6121997,24.9254983 34.4149161,24.4790983 32.1577822,23.586815" id="Fill-1" fill="#5E469C"></path>
                <polygon id="Fill-3" fill="#5E469C" points="51.0780494 24.46427 48.3514817 7.85240333 50.9468994 7.85240333 52.5373539 17.96512 52.9578667 20.31492 53.3612051 17.96512 56.0216774 7.85240333 58.5234165 7.85240333 61.5403879 17.96512 62.066029 20.31492 62.4095172 17.96512 64.00986 7.85240333 66.1483343 7.85240333 63.4368592 24.46427 60.8305123 24.46427 57.6246224 13.7713367 57.1151149 11.4215367 57.040172 11.4215367 56.5759425 13.7563533 53.7895245 24.46427"></polygon>
                <path d="M79.795537,17.4385333 L79.795537,10.3064667 C78.8041052,10.04865 77.8844936,9.91948333 77.0341,9.91948333 C75.3140568,9.91948333 73.8807742,10.5803 72.7347727,11.8998667 C71.589812,13.21995 71.0168112,15.0169167 71.0168112,17.2897333 C71.0168112,18.9379 71.3290732,20.181 71.9546381,21.0200667 C72.580203,21.8591333 73.2926808,22.27815 74.0931124,22.27815 C74.9632825,22.27815 75.924529,21.8420833 76.9742498,20.9678833 C78.0255319,20.0942 78.9654405,18.9182667 79.795537,17.4385333 M79.7840874,20.7477833 C78.9352552,22.1303833 77.9131176,23.1730167 76.7197563,23.8731 C75.5258745,24.5747333 74.4298349,24.92555 73.4300761,24.92555 C72.0321831,24.92555 70.775849,24.3257 69.6610736,23.126 C68.5478596,21.9263 67.9909924,20.1066 67.9909924,17.6679333 C67.9909924,15.7443833 68.3605024,14.0264667 69.1005633,12.5147 C69.8411447,11.0029333 70.8310153,9.80788333 72.0706955,8.93058333 C73.3103756,8.05328333 74.8446229,7.61463333 76.6744783,7.61463333 C77.2053237,7.61463333 78.0026327,7.66888333 79.0690074,7.7779 C79.2287815,7.79805 79.4671415,7.82285 79.7866896,7.8523 L82.581955,7.8523 L82.581955,19.5827 C82.581955,21.5878833 82.7963749,23.2138333 83.2262556,24.4641667 L80.3196168,24.4641667 C80.0953086,23.5558667 79.9167988,22.3179333 79.7840874,20.7477833" id="Fill-5" fill="#5E469C"></path>
                <path d="M88.6190205,24.46427 L88.6190205,7.85240333 L91.4054384,7.85240333 L91.4054384,11.4809533 C92.2740472,10.11282 93.2706835,9.08930333 94.3937858,8.40988667 C95.5174086,7.73098667 96.7685384,7.39153667 98.1466547,7.39153667 C99.155261,7.39153667 100.163867,7.54498667 101.172474,7.85240333 L101.172474,13.8457367 L98.4911838,13.8457367 L98.4911838,10.0534033 C98.0217499,9.97383667 97.6522398,9.93457 97.3826536,9.93457 C96.343862,9.93457 95.3253675,10.34067 94.3266495,11.1539033 C93.3279315,11.9671367 92.3541945,13.18647 91.4054384,14.81242 L91.4054384,24.46427 L88.6190205,24.46427 Z" id="Fill-7" fill="#5E469C"></path>
                <path d="M104.348438,24.46427 L104.348438,7.85240333 L106.790327,7.85240333 L106.790327,11.65972 C107.559012,10.0435867 108.275653,8.92810333 108.939731,8.31327 C109.603808,7.69843667 110.275692,7.39153667 110.954862,7.39153667 C111.76362,7.39153667 112.415207,7.70618667 112.909622,8.33548667 C113.404037,8.96530333 113.651244,9.86017 113.651244,11.0200867 L113.651244,11.91237 C113.98068,10.9012533 114.377774,10.0807867 114.842003,9.45097 C115.306753,8.82167 115.788677,8.32102 116.287776,7.94902 C116.787395,7.57702 117.361437,7.39153667 118.010422,7.39153667 C118.729665,7.39153667 119.34378,7.69378667 119.853288,8.29828667 C120.362275,8.90330333 120.617289,10.10817 120.617289,11.91237 L120.617289,24.46427 L118.1754,24.46427 L118.1754,13.1172367 C118.1754,12.18517 118.145215,11.54812 118.085364,11.2060867 C118.025514,10.8640533 117.905814,10.6036533 117.725743,10.4254033 C117.546192,10.2466367 117.351549,10.1572533 117.141813,10.1572533 C116.622417,10.1572533 116.06555,10.55147 115.471211,11.3399033 C114.877393,12.12782 114.270564,13.43447 113.651244,15.25882 L113.651244,24.46427 L111.329055,24.46427 L111.329055,13.1317033 C111.329055,11.66437 111.184374,10.8020533 110.895011,10.5442367 C110.602526,10.28642 110.341787,10.1572533 110.112275,10.1572533 C109.600165,10.1572533 109.052145,10.5984867 108.465613,11.4809533 C107.880122,12.36342 107.320652,13.4938867 106.790327,14.8718367 L106.790327,24.46427 L104.348438,24.46427 Z" id="Fill-9" fill="#5E469C"></path>
                <path d="M126.594348,14.8780883 L126.594348,22.010155 C127.602954,22.2679717 128.531934,22.3971383 129.380766,22.3971383 C131.068542,22.3971383 132.489334,21.738905 133.642622,20.4239883 C134.79591,19.1090717 135.373074,17.3095217 135.373074,15.0268883 C135.373074,13.3683883 135.05821,12.1232217 134.429002,11.288805 C133.799794,10.4559383 133.085755,10.0384717 132.286884,10.0384717 C131.418275,10.0384717 130.461713,10.4745383 129.418237,11.3487383 C128.374762,12.2224217 127.433292,13.398355 126.594348,14.8780883 L126.594348,14.8780883 Z M126.594348,11.5874383 C127.453068,10.1986383 128.476767,9.15238833 129.665445,8.44713833 C130.853602,7.74343833 131.94756,7.39107167 132.946278,7.39107167 C134.34417,7.39107167 135.602586,7.99092167 136.721005,9.19062167 C137.839423,10.3903217 138.398893,12.2100217 138.398893,14.6486883 C138.398893,16.5722383 138.02678,18.290155 137.283076,19.8019217 C136.538852,21.3136883 135.54742,22.5087383 134.309301,23.3860383 C133.070662,24.2633383 131.537976,24.7019883 129.710202,24.7019883 C129.190807,24.7019883 128.391936,24.6477383 127.313591,24.5387217 C127.153817,24.5185717 126.913896,24.4937717 126.594348,24.4643217 L126.594348,30.9185217 L123.80793,30.9185217 L123.80793,7.852455 L126.594348,7.852455 L126.594348,11.5874383 Z" id="Fill-11" fill="#5E469C"></path>
                <path d="M146.668111,1.85152667 C146.668111,1.22946 146.883051,0.76601 147.309809,0.458593333 C147.736567,0.15376 148.140947,-0.000206666667 148.518263,-0.000206666667 C148.90755,-0.000206666667 149.314531,0.15376 149.74181,0.458593333 C150.17117,0.76601 150.383508,1.22946 150.383508,1.85152667 C150.383508,2.46377667 150.17117,2.92361 149.74181,3.22947667 C149.314531,3.53586 148.90755,3.68827667 148.518263,3.68827667 C148.140947,3.68827667 147.736567,3.53586 147.309809,3.22947667 C146.883051,2.92361 146.668111,2.46377667 146.668111,1.85152667 L146.668111,1.85152667 Z M147.117768,24.4644767 L147.117768,10.15746 L142.473391,10.15746 L142.473391,7.85209333 L149.903666,7.85209333 L149.903666,22.15911 L154.562615,22.15911 L154.562615,24.4644767 L147.117768,24.4644767 Z" id="Fill-13" fill="#5E469C"></path>
                <path d="M174.831281,23.7950317 C173.522904,24.340115 172.574148,24.6650983 171.985013,24.7689483 C171.395879,24.873315 170.826521,24.9254983 170.277461,24.9254983 C169.10856,24.9254983 168.040103,24.7022983 167.071571,24.2558983 C166.102518,23.810015 165.373386,23.1507483 164.879491,22.2780983 C164.385077,21.4054483 164.135267,20.057465 164.135267,18.233115 L164.135267,11.5407317 L159.95564,11.5407317 L159.95564,9.235365 L164.135267,9.235365 L164.135267,2.54298167 L166.921685,2.54298167 L166.921685,9.235365 L174.367052,9.235365 L174.367052,11.5407317 L166.921685,11.5407317 L166.921685,18.188165 C166.921685,19.5268483 167.081459,20.471315 167.401007,21.021565 C167.720555,21.571815 168.149915,21.9758483 168.684404,22.233665 C169.218372,22.4914817 169.84758,22.6201317 170.576712,22.6201317 C171.925163,22.6201317 173.343353,22.1985317 174.831281,21.3558483 L174.831281,23.7950317 Z" id="Fill-15" fill="#5E469C"></path>
                <path d="M185.35602,25.1632683 C184.898036,25.1632683 184.505106,25.0005183 184.176711,24.6745017 C183.848836,24.3490017 183.684898,23.9589183 183.684898,23.5042517 C183.684898,23.0428683 183.850397,22.6507183 184.181915,22.3283183 C184.513433,22.0059183 184.904802,21.8447183 185.35602,21.8447183 C185.807239,21.8447183 186.198607,22.0059183 186.530125,22.3283183 C186.861644,22.6507183 187.027143,23.0428683 187.027143,23.5042517 C187.027143,23.9589183 186.863205,24.3490017 186.53533,24.6745017 C186.206934,25.0005183 185.814005,25.1632683 185.35602,25.1632683" id="Fill-17" fill="#7E3F98"></path>
                <path d="M196.152531,9.20787833 C196.152531,8.782145 196.299294,8.46491167 196.59178,8.25462833 C196.883745,8.045895 197.160617,7.940495 197.418754,7.940495 C197.683656,7.940495 197.964171,8.045895 198.256136,8.25462833 C198.548101,8.46491167 198.695385,8.782145 198.695385,9.20787833 C198.695385,9.626895 198.548101,9.941545 198.256136,10.1513117 C197.964171,10.3605617 197.683656,10.4649283 197.418754,10.4649283 C197.160617,10.4649283 196.883745,10.3605617 196.59178,10.1513117 C196.299294,9.941545 196.152531,9.626895 196.152531,9.20787833 L196.152531,9.20787833 Z M196.460109,24.6846283 L196.460109,14.8927617 L193.281803,14.8927617 L193.281803,13.3148617 L198.366989,13.3148617 L198.366989,23.107245 L201.555705,23.107245 L201.555705,24.6846283 L196.460109,24.6846283 Z" id="Fill-19" fill="#7E3F98"></path>
                <g id="Group-23" transform="translate(205.052050, 12.835343)">
                    <mask id="mask-2" fill="white">
                        <use xlink:href="#path-1"></use>
                    </mask>
                    <g id="Clip-22"></g>
                    <path d="M5.51126827,10.5873267 C6.52820154,10.5873267 7.33643969,10.1936267 7.93806449,9.40674333 C8.53760754,8.61934333 8.83841994,7.53692667 8.83841994,6.15949333 C8.83841994,4.78877667 8.53760754,3.70997667 7.93806449,2.92257667 C7.33643969,2.13569333 6.52820154,1.74199333 5.51126827,1.74199333 C4.48756933,1.74199333 3.67620855,2.13569333 3.07458375,2.92257667 C2.47452026,3.70997667 2.17370787,4.78877667 2.17370787,6.15949333 C2.17370787,7.53692667 2.47452026,8.61934333 3.07458375,9.40674333 C3.67620855,10.1936267 4.48756933,10.5873267 5.51126827,10.5873267 M5.51126827,12.1652267 C3.87241318,12.1652267 2.56195363,11.5968933 1.57728743,10.4602267 C0.59470299,9.32356 0.102890331,7.88981 0.102890331,6.15949333 C0.102890331,4.42917667 0.59470299,2.99749333 1.57728743,1.86392667 C2.56195363,0.730876667 3.87241318,0.164093333 5.51126827,0.164093333 C7.14335769,0.164093333 8.45069462,0.730876667 9.43484037,1.86392667 C10.4174248,2.99749333 10.9097579,4.42917667 10.9097579,6.15949333 C10.9097579,7.88981 10.4174248,9.32356 9.43484037,10.4602267 C8.45069462,11.5968933 7.14335769,12.1652267 5.51126827,12.1652267" id="Fill-21" fill="#7E3F98" mask="url(#mask-2)"></path>
                </g>
                <g id="Group-26" transform="translate(0.000000, 4.568677)">
                    <mask id="mask-4" fill="white">
                        <use xlink:href="#path-3"></use>
                    </mask>
                    <g id="Clip-25"></g>
                    <path d="M18.4227297,20.7019033 L7.95362555,20.7019033 L2.71907346,11.7010533 L7.95362555,2.70020333 L18.4227297,2.70020333 L23.6572818,11.7010533 L18.4227297,20.7019033 Z M19.7821103,0.362803333 L6.59424495,0.362803333 L-0.00020817467,11.7010533 L6.59424495,23.03982 L19.7821103,23.03982 L26.3765635,11.7010533 L19.7821103,0.362803333 Z" id="Fill-24" fill="#5E469C" mask="url(#mask-4)"></path>
                </g>
                <polygon id="Fill-27" fill="#95247A" points="9.44972486 10.2246783 5.90451022 16.3203117 5.83373084 16.3203117 9.37894547 22.415945 12.9241601 16.3203117 12.9949395 16.3203117"></polygon>
                <polygon id="Fill-29" fill="#CD68A8" points="20.2613805 16.577715 13.21727 16.577715 13.1881256 16.528115 9.64291096 22.6237483 16.6875418 22.6237483 16.7161658 22.6733483"></polygon>
                <polygon id="Fill-31" fill="#BC4097" points="16.8373755 10.1516217 16.8545499 10.1226883 9.76412066 10.1226883 13.2921609 16.1888717 13.2755069 16.2183217 20.3654158 16.2183217"></polygon>
            </g>
        </g>
    </g>
</svg>