<svg version="1" xmlns="http://www.w3.org/2000/svg" width="533.333" height="533.333" viewBox="0 0 400.000000 400.000000"><path d="M97.7 63.7C91.4 74.6 85.3 85.1 84.1 87c-1.1 1.9-2.4 4.2-2.8 5-.4.8-2.6 4.6-4.8 8.5-2.3 3.8-5.3 9-6.7 11.5-6.9 12.2-44.4 76.9-46.3 80-4.2 6.6-3.9 8.5 3 19.9.6.9 5.2 9 10.4 18.1 5.2 9.1 10.2 17.6 11.1 19 .9 1.4 3 5 4.7 8 2.6 4.8 25.2 43.9 36.3 63 2.1 3.6 7.5 12.9 11.9 20.6l8.2 14.2h179.3l3.4-5.6c1.9-3.1 8.8-15.1 15.4-26.7s14.2-24.6 16.8-29c4.5-7.7 25.6-44.2 29.8-51.5 1-1.9 7-12.2 13.1-22.8 6.2-10.7 11-19.9 10.8-20.6-.3-.8-11.4-20.2-24.8-43.2-13.3-23.1-25.3-43.9-26.7-46.4-1.4-2.5-4.3-7.3-6.4-10.8-2.1-3.4-3.8-6.4-3.8-6.6 0-.2-3.6-6.6-8.1-14.2-10-17.1-12.5-21.5-16.2-28.2l-2.9-5.2H109.1L97.7 63.7zM271 78.3c.7 1.1 2.4 4.1 3.8 6.6s5.2 9 8.4 14.4c3.2 5.5 5.8 10 5.8 10.2 0 .2 3.3 5.9 7.3 12.6 4 6.8 7.6 13.1 8 13.9.4.8 1.1 2.2 1.7 3 .6.8 6.5 10.9 13.1 22.5 15.2 26.2 14.9 25.9 18.7 32.5l3.1 5.5-2.3 4c-1.2 2.2-4.9 8.5-8.1 14-3.2 5.5-6.6 11.3-7.5 13-.9 1.6-5.1 8.8-9.2 16-4.2 7.1-8.5 14.6-9.6 16.5-1.1 1.9-4.3 7.5-7.2 12.5-2.9 4.9-6.2 10.8-7.5 13-1.2 2.2-6.2 10.7-10.9 19l-8.7 15h-70.5c-38.8 0-70.9-.2-71.3-.5-.4-.3-7.3-11.8-15.3-25.5-31.9-55.1-32.4-56-40.1-69.6-2.6-4.6-5.2-9.1-5.7-9.9-2.4-3.8-10-17.2-10-17.6 0-.2 4.1-7.5 9.1-16.2 9.3-16 21.1-36.5 44.9-77.7 7.2-12.7 14.1-24.4 15.1-26.1l1.9-3.1h70.8c70 0 70.9 0 72.2 2z"/><path d="M151.9 115.8c-1.6.3-2.1 1-6.3 8.7-1.6 2.7-3.2 5.4-3.6 6-.4.5-1.9 3-3.2 5.5-2.4 4.2-17.4 30.4-30.3 52.5-3.2 5.5-5.8 10.4-5.8 11 0 .5 3.1 6.2 6.8 12.5 3.7 6.3 7.9 13.5 9.3 16 1.3 2.5 3.9 7 5.7 10 1.8 3 4.4 7.4 5.6 9.6 1.3 2.3 6.4 11.2 11.4 19.8l9 15.6h97l5.8-10.3c3.1-5.6 6.9-12.2 8.3-14.7 1.5-2.5 9.6-16.5 18-31.1 8.5-14.7 15.4-27.1 15.4-27.6s-2.5-5.2-5.6-10.4c-3.1-5.1-6.7-11.4-8.1-13.9-3.8-6.7-33.6-58.4-34-58.9-.3-.5-93.1-.8-95.4-.3z"/></svg>